<ttFont>
<head>
    <!-- Most of this table will be recalculated by the compiler -->
    <tableVersion value="1.0"/>
    <fontRevision value="1.0"/>
    <checkSumAdjustment value="0xd870437"/>
    <magicNumber value="0x5f0f3cf5"/>
    <flags value="00000000 00000011"/>
    <unitsPerEm value="2048"/>
    <created value="Thu Aug 15 19:05:13 2019"/>
    <modified value="Fri Aug 16 02:18:59 2019"/>
    <xMin value="-592"/>
    <yMin value="-497"/>
    <xMax value="3939"/>
    <yMax value="2076"/>
<macStyle value="00000000 00000000"/>
    <lowestRecPPEM value="3"/>
    <fontDirectionHint value="2"/>
    <indexToLocFormat value="0"/>
    <glyphDataFormat value="0"/>
  </head>
          <CharString index="0">
            -565 94 callsubr
            return
          </CharString>
          <CharString index="1">
            487 485 321 325 429 return
          </CharString>
          <CharString index="2">
            rmoveto
            -442 326 -303 return
          </CharString>
          <CharString index="3">
            326 -255 205 -368 -366 -261 -222 -321 return
          </CharString>
          <CharString index="4">
            rmoveto
            72 callsubr
            return
          </CharString>
          <CharString index="5">
            120 callsubr
            -107 callgsubr
            29 callsubr
            83 callsubr
            endchar
          </CharString>
          <CharString index="6">
            rmoveto
            -10 callsubr
            57 callsubr
            endchar
          </CharString>
          <CharString index="7">
            rmoveto
            182 139 72 116 41 hvcurveto
            return
          </CharString>
          <CharString index="8">
            44 callsubr
            endchar
          </CharString>
          <CharString index="9">
            660 87 vlineto
            -75 15 -14 19 73 vvcurveto
            return
          </CharString>
          <CharString index="10">
            rmoveto
            367 261 223 320 return
          </CharString>
          <CharString index="11">
            150 callsubr
            endchar
          </CharString>
          <CharString index="12">
            rmoveto
            4 callsubr
            1274 vlineto
            -36 callsubr
            endchar
          </CharString>
          <CharString index="13">
            -78 callsubr
            endchar
          </CharString>
          <CharString index="14">
            592 vlineto
            39 19 51 28 60 hhcurveto
            90 52 -53 -101 hvcurveto
            -505 vlineto
            -73 -16 -19 -74 -15 vhcurveto
            -87 660 87 vlineto
            -96 17 -20 23 74 vvcurveto
            512 vlineto
            224 -140 114 -215 -196 return
          </CharString>
          <CharString index="15">
            1137 rmoveto
            467 397 rlineto
            10 return
          </CharString>
          <CharString index="16">
            60 callsubr
            endchar
          </CharString>
          <CharString index="17">
            rmoveto
            39 callsubr
            return
          </CharString>
          <CharString index="18">
            -46 callsubr
            -450 vlineto
            -224 134 -115 205 193 130 87 118 48 vhcurveto
            -197 vlineto
            return
          </CharString>
          <CharString index="19">
            rmoveto
            -675 vlineto
            -383 274 -192 369 198 callsubr
            endchar
          </CharString>
          <CharString index="20">
            -454 vlineto
            -123 -407 rlineto
            return
          </CharString>
          <CharString index="21">
            58 callsubr
            endchar
          </CharString>
          <CharString index="22">
            rmoveto
            -98 -80 -69 -98 -99 80 -69 98 return
          </CharString>
          <CharString index="23">
            -992 -92 callgsubr
            return
          </CharString>
          <CharString index="24">
            56 -19 9 -17 -72 vvcurveto
            return
          </CharString>
          <CharString index="25">
            rmoveto
            -23 callsubr
            1 callsubr
            endchar
          </CharString>
          <CharString index="26">
            rmoveto
            64 callgsubr
            return
          </CharString>
          <CharString index="27">
            89 78 108 109 -89 76 return
          </CharString>
          <CharString index="28">
            -21 callsubr
            -453 vlineto
            -104 -316 rlineto
            return
          </CharString>
          <CharString index="29">
            687 87 vlineto
            -96 17 -20 23 74 vvcurveto
            return
          </CharString>
          <CharString index="30">
            -567 -72 0 -83 51 -17 rlineto
            return
          </CharString>
          <CharString index="31">
            98 80 69 99 98 -80 69 -98 hvcurveto
            endchar
          </CharString>
          <CharString index="32">
            rmoveto
            694 196 -694 hlineto
            endchar
          </CharString>
          <CharString index="33">
            70 98 97 -80 69 -99 -99 return
          </CharString>
          <CharString index="34">
            1521 rmoveto
            99 80 return
          </CharString>
          <CharString index="35">
            1137 rmoveto
            273 181 273 -181 110 0 return
          </CharString>
          <CharString index="36">
            rmoveto
            362 -855 -79 -106 -143 -159 -103 -101 rlinecurve
            -7 346 vlineto
            152 413 161 384 171 416 59 145 27 25 84 18 rlinecurve
            88 -379 -88 vlineto
            109 -13 7 -33 -44 -134 rrcurveto
            -123 -364 -120 365 -44 133 6 34 113 12 rlinecurve
            88 -717 -88 vlineto
            80 -18 21 -24 54 -131 rrcurveto
            endchar
          </CharString>
          <CharString index="37">
            77 63 55 77 78 -63 54 -77 hvcurveto
            -17 hlineto
            -78 return
          </CharString>
          <CharString index="38">
            1578 rmoveto
            672 187 -672 hlineto
            return
          </CharString>
          <CharString index="39">
            992 44 callgsubr
            return
          </CharString>
          <CharString index="40">
            rmoveto
            303 -562 rlineto
            -363 -90 callgsubr
            779 3 callsubr
            -32 callgsubr
            57 callgsubr
            endchar
          </CharString>
          <CharString index="41">
            -438 rlineto
            83 hlineto
            54 243 71 69 198 22 33 4 rcurveline
            return
          </CharString>
          <CharString index="42">
            -1035 94 callsubr
            return
          </CharString>
          <CharString index="43">
            113 -23 23 -25 -91 vvcurveto
            return
          </CharString>
          <CharString index="44">
            1159 rmoveto
            110 return
          </CharString>
          <CharString index="45">
            88 -74 108 hvcurveto
            endchar
          </CharString>
          <CharString index="46">
            rmoveto
            361 81 362 -81 0 72 -332 185 -60 0 -332 -185 rlineto
            return
          </CharString>
          <CharString index="47">
            1137 rmoveto
            110 hlineto
            -111 407 rlineto
            -470 -10 hlineto
            return
          </CharString>
          <CharString index="48">
            620 1516 -103 callsubr
            -65 callsubr
            return
          </CharString>
          <CharString index="49">
            -436 -437 14 callgsubr
            return
          </CharString>
          <CharString index="50">
            -295 0 -217 -316 rlineto
            return
          </CharString>
          <CharString index="51">
            780 87 vlineto
            -122 20 -25 return
          </CharString>
          <CharString index="52">
            -1102 -91 callgsubr
            return
          </CharString>
          <CharString index="53">
            1533 rmoveto
            129 return
          </CharString>
          <CharString index="54">
            87 -74 109 hvcurveto
            endchar
          </CharString>
          <CharString index="55">
            -614 vlineto
            -320 -35 -104 -148 -135 vhcurveto
            43 -70 94 50 rlineto
            375 199 126 147 359 vvcurveto
            endchar
          </CharString>
          <CharString index="56">
            -253 155 -103 199 150 136 61 67 55 vhcurveto
            91 callgsubr
            return
          </CharString>
          <CharString index="57">
            rmoveto
            77 64 55 77 78 -64 54 -77 hvcurveto
            -17 hlineto
            -78 2 callsubr
            return
          </CharString>
          <CharString index="58">
            vlineto
            91 22 25 114 23 vhcurveto
            87 -759 -87 vlineto
            -40 callsubr
            return
          </CharString>
          <CharString index="59">
            99 80 70 97 98 -80 69 -99 -99 -80 -69 -98 -97 80 -70 99 hvcurveto
            return
          </CharString>
          <CharString index="60">
            -87 callgsubr
            256 -135 109 0 -217 316 return
          </CharString>
          <CharString index="61">
            rmoveto
            -570 -72 0 -83 50 -17 rlineto
            -83 callsubr
            return
          </CharString>
          <CharString index="62">
            1393 1444 rmoveto
            -1344 hlineto
            -11 return
          </CharString>
          <CharString index="63">
            1543 37 callsubr
            -80 vlineto
            return
          </CharString>
          <CharString index="64">
            747 87 vlineto
            -104 20 -20 26 85 vvcurveto
            return
          </CharString>
          <CharString index="65">
            1861 rmoveto
            -256 -135 return
          </CharString>
          <CharString index="66">
            -39 -51 -33 hvcurveto
            -73 vlineto
            19 8 return
          </CharString>
          <CharString index="67">
            114 -23 22 -25 -91 vvcurveto
            return
          </CharString>
          <CharString index="68">
            -87 hlineto
            -40 callsubr
            return
          </CharString>
          <CharString index="69">
            rmoveto
            283 397 rlineto
            10 return
          </CharString>
          <CharString index="70">
            rmoveto
            -169 165 -103 202 -23 vhcurveto
            -238 -23 -134 -104 -1 -147 rrcurveto
            -147 153 -93 230 -2 vhcurveto
            -298 -4 -115 -65 -99 vvcurveto
            -129 209 -92 376 375 257 160 231 1 vhcurveto
            210 -160 133 -327 vhcurveto
            -180 hlineto
            -103 -50 28 47 40 32 25 48 12 hvcurveto
            -4 39 39 -2 42 hhcurveto
            323 231 112 202 93 -66 86 -98 33 hvcurveto
            265 -27 0 138 -364 -28 rlineto
            30 -79 -110 20 -116 hhcurveto
            -329 -219 -138 -201 hvcurveto
            442 16 rmoveto
            132 36 85 79 73 48 -84 -143 -134 -38 -85 -78 -73 -47 85 144 vhcurveto
            -92 -964 rmoveto
            72 51 45 81 5 vhcurveto
            132 hlineto
            121 56 -45 -73 -85 -90 -58 -143 -129 -79 54 85 hvcurveto
            endchar
          </CharString>
          <CharString index="71">
            11 477 rlineto
            -84 hlineto
            -69 -284 -79 -72 -256 -13 rrcurveto
            -174 -8 0 587 127 -3 115 -5 34 -50 30 -158 rlinecurve
            79 531 -79 hlineto
            -30 -156 -34 -52 -115 -5 rrcurveto
            -127 -2 0 557 146 -6 257 -14 70 -70 59 -248 rlinecurve
            84 hlineto
            return
          </CharString>
          <CharString index="72">
            rmoveto
            74 59 46 66 66 -59 45 -74 hvcurveto
            -17 hlineto
            -73 -59 -45 -66 -66 59 -46 73 hvcurveto
            391 hmoveto
            73 59 46 66 66 -59 45 -73 hvcurveto
            -17 hlineto
            -74 -59 -45 -66 -66 59 -46 74 hvcurveto
            return
          </CharString>
          <CharString index="73">
            1552 rmoveto
            232 114 143 151 23 -2 21 -3 17 hvcurveto
            -99 hlineto
            -89 return
          </CharString>
          <CharString index="74">
            -227 -127 294 340 377 132 253 221 -12 callgsubr
          </CharString>
          <CharString index="75">
            78 62 55 77 78 -62 54 -78 hvcurveto
            -17 hlineto
            -77 -64 -54 -78 -77 64 -55 77 hvcurveto
            return
          </CharString>
          <CharString index="76">
            27 26 53 31 33 -9 -13 40 vhcurveto
            43 -14 rlineto
            -17 54 54 -15 56 hhcurveto
            return
          </CharString>
          <CharString index="77">
            -110 -109 -89 -76 -109 -108 89 -78 109 hvcurveto
            return
          </CharString>
          <CharString index="78">
            rmoveto
            228 38 201 152 229 vvcurveto
            158 -98 105 return
          </CharString>
          <CharString index="79">
            rmoveto
            220 139 112 189 -6 hvcurveto
            -101 hlineto
            -63 -8 return
          </CharString>
          <CharString index="80">
            1543 rmoveto
            706 -107 0 80 -706 245 rlineto
            return
          </CharString>
          <CharString index="81">
            rmoveto
            167 118 73 123 121 -105 69 -137 return
          </CharString>
          <CharString index="82">
            rmoveto
            352 76 callsubr
            -323 -218 rlineto
            return
          </CharString>
          <CharString index="83">
            1563 rmoveto
            -273 -181 -273 181 return
          </CharString>
          <CharString index="84">
            992 -49 callsubr
            -22 callsubr
            return
          </CharString>
          <CharString index="85">
            -992 vlineto
            -91 -22 -25 -114 -23 vhcurveto
            -87 return
          </CharString>
          <CharString index="86">
            1530 rmoveto
            448 308 rlineto
            9 return
          </CharString>
          <CharString index="87">
            698 1444 -7 callsubr
            return
          </CharString>
          <CharString index="88">
            1891 81 callsubr
            return
          </CharString>
          <CharString index="89">
            1537 105 callgsubr
            return
          </CharString>
          <CharString index="90">
            -377 vlineto
            -29 -407 rlineto
            endchar
          </CharString>
          <CharString index="91">
            -80 -69 -97 -98 80 -70 99 hvcurveto
            return
          </CharString>
          <CharString index="92">
            -454 vlineto
            -104 -316 rlineto
            return
          </CharString>
          <CharString index="93">
            -131 -87 -118 -48 vhcurveto
            return
          </CharString>
          <CharString index="94">
            769 3 callsubr
            return
          </CharString>
          <CharString index="95">
            rmoveto
            277 -768 299 0 225 646 232 -646 300 0 255 738 55 160 28 26 79 17 rlinecurve
            88 -355 -88 vlineto
            94 -12 9 -34 -40 -149 rrcurveto
            -106 -371 -101 369 -39 150 6 37 94 10 rlinecurve
            88 -671 -88 vlineto
            90 -12 8 -34 -39 -148 rrcurveto
            -105 -372 -101 369 -38 150 6 37 95 10 rlinecurve
            88 -705 -88 vlineto
            75 -18 27 -28 46 -127 rrcurveto
            endchar
          </CharString>
          <CharString index="96">
            rmoveto
            -439 333 -300 500 227 222 46 84 126 vhcurveto
            415 vlineto
            83 20 27 102 15 vhcurveto
            87 -674 -87 vlineto
            109 -14 21 -27 -83 vvcurveto
            -396 vlineto
            -19 -20 -44 -14 -53 hhcurveto
            -216 -117 290 344 377 126 253 228 182 127 -178 -235 54 hvcurveto
            83 hlineto
            -7 443 rlineto
            57 -91 -178 30 -199 hhcurveto
            -488 -373 -267 -492 hvcurveto
            endchar
          </CharString>
          <CharString index="97">
            -396 1135 -386 0 -395 -1117 -67 -187 -30 -32 -107 -21 rlinecurve
            -87 454 87 vlineto
            -135 23 -25 38 56 177 rrcurveto
            43 135 425 0 44 -138 56 -175 -25 -38 -133 -22 rlinecurve
            -87 return
          </CharString>
          <CharString index="98">
            21 -20 32 -3 50 callgsubr
            3 131 18 33 110 20 rlinecurve
            87 -417 -88 vlineto
            120 -20 19 -33 3 -135 18 -759 rcurveline
            return
          </CharString>
          <CharString index="99">
            rmoveto
            168 117 73 123 121 -104 69 -137 -103 -80 -41 callsubr
            29 6 29 -1 rrcurveto
            55 -1 -82 callgsubr
            return
          </CharString>
          <CharString index="100">
            rmoveto
            -660 -87 hlineto
            110 -21 25 -39 -1 -100 rrcurveto
            -12 -926 -2 -131 -19 -33 -110 -20 rlinecurve
            -87 417 88 vlineto
            -120 return
          </CharString>
          <CharString index="101">
            rmoveto
            -468 369 -276 489 189 179 37 60 90 vhcurveto
            7 446 rlineto
            -50 callgsubr
            return
          </CharString>
          <CharString index="102">
            72 -63 88 hvcurveto
            380 hmoveto
            -97 callgsubr
            -71 -63 -88 -89 71 -63 88 hvcurveto
            return
          </CharString>
          <CharString index="103">
            10 517 rlineto
            -84 hlineto
            -73 -308 -95 -91 -218 -13 return
          </CharString>
          <CharString index="104">
            -110 -89 -76 -109 -108 89 -78 110 hvcurveto
            return
          </CharString>
          <CharString index="105">
            rmoveto
            109 87 74 103 103 -87 73 -109 -108 return
          </CharString>
          <CharString index="106">
            vlineto
            85 20 25 104 21 vhcurveto
            87 -747 -87 vlineto
            return
          </CharString>
          <CharString index="107">
            1216 rmoveto
            747 218 -747 hlineto
            return
          </CharString>
          <CharString index="108">
            759 87 vlineto
            -114 23 -22 25 91 vvcurveto
            return
          </CharString>
          <CharString index="109">
            -62 -54 -78 -77 62 -55 78 hvcurveto
            410 hmoveto
            return
          </CharString>
          <CharString index="110">
            87 vlineto
            -122 20 -24 34 101 vvcurveto
            return
          </CharString>
          <CharString index="111">
            -1228 77 callsubr
            return
          </CharString>
          <CharString index="112">
            1891 80 callsubr
            return
          </CharString>
          <CharString index="113">
            858 149 333 rmoveto
            return
          </CharString>
          <CharString index="114">
            718 -105 callsubr
            return
          </CharString>
          <CharString index="115">
            rmoveto
            340 -1135 368 0 303 1028 293 -1028 375 0 337 1118 56 187 33 33 104 19 rlinecurve
            87 -444 -87 vlineto
            127 -21 18 -36 -42 -172 rrcurveto
            -190 -752 -199 770 -42 157 8 31 126 23 rlinecurve
            87 -759 -87 vlineto
            121 -20 11 -31 -38 -150 rrcurveto
            -198 -780 -194 756 -42 167 19 36 135 22 rlinecurve
            87 -811 -87 vlineto
            104 -19 31 -36 50 -167 rrcurveto
            endchar
          </CharString>
          <CharString index="116">
            1787 675 218 rmoveto
            465 437 -465 vlineto
            -88 -21 67 callgsubr
            return
          </CharString>
          <CharString index="117">
            rmoveto
            454 70 vlineto
            330 -672 rlineto
            543 84 hlineto
            -61 27 -29 37 -119 231 rrcurveto
            -326 650 93 92 170 165 71 43 135 28 rlinecurve
            87 -506 -87 vlineto
            118 -21 16 -34 -107 -127 rrcurveto
            -328 -395 -70 -1 rlineto
            447 -1 callsubr
            -64 callsubr
            -84 callsubr
            -35 callgsubr
            endchar
          </CharString>
          <CharString index="118">
            1733 rmoveto
            -97 -83 -43 -63 -49 hvcurveto
            -62 vlineto
            18 29 55 15 49 hhcurveto
            83 39 -33 -40 -44 -40 -34 -89 -17 hvcurveto
            75 -49 rlineto
            171 27 86 58 102 vvcurveto
            98 -94 67 -135 vhcurveto
            return
          </CharString>
          <CharString index="119">
            92 95 241 -12 hvcurveto
            -101 hlineto
            -86 -26 -35 -49 -30 -26 12 26 -42 vhcurveto
            -30 18 rlineto
            39 -62 -53 19 -66 hhcurveto
            -128 -92 -96 -241 return
          </CharString>
          <CharString index="120">
            -88 vlineto
            96 -17 20 -23 -73 vvcurveto
            -627 94 callsubr
            return
          </CharString>
          <CharString index="121">
            -114 -5 rcurveline
            1113 vlineto
            93 24 30 122 21 vhcurveto
            87 -103 callgsubr
            -84 callsubr
            vlineto
            return
          </CharString>
          <CharString index="122">
            rmoveto
            196 171 69 113 87 hvcurveto
            146 callsubr
            -336 269 -194 321 vhcurveto
            endchar
          </CharString>
          <CharString index="123">
            1907 rmoveto
            -232 -114 -143 -151 -22 2 -22 3 -17 hvcurveto
            99 1 hlineto
            88 return
          </CharString>
          <CharString index="124">
            rmoveto
            -568 134 callsubr
            -565 88 callsubr
            151 callsubr
            endchar
          </CharString>
          <CharString index="125">
            1164 rmoveto
            139 96 107 261 -13 hvcurveto
            -101 hlineto
            -97 -29 -40 -54 -34 return
          </CharString>
          <CharString index="126">
            1521 rmoveto
            99 81 70 98 97 -81 69 -99 -99 -16 callsubr
            return
          </CharString>
          <CharString index="127">
            1148 rmoveto
            117 94 82 114 116 -94 81 -117 -116 return
          </CharString>
          <CharString index="128">
            1296 1249 hmoveto
            -4 callsubr
            14 callsubr
            return
          </CharString>
          <CharString index="129">
            36 -23 -40 -41 -39 -22 -59 -49 -47 14 19 -26 hvcurveto
            -1 -84 rlineto
            -52 return
          </CharString>
          <CharString index="130">
            1847 rmoveto
            -394 -9 hlineto
            372 -308 rlineto
            125 hlineto
            return
          </CharString>
          <CharString index="131">
            1148 rmoveto
            116 94 82 114 116 -94 81 -116 return
          </CharString>
          <CharString index="132">
            1861 rmoveto
            -257 -135 -256 135 -109 0 return
          </CharString>
          <CharString index="133">
            109 -80 callsubr
            -109 -3 callsubr
            return
          </CharString>
          <CharString index="134">
            1458 595 1046 -89 callsubr
            return
          </CharString>
          <CharString index="135">
            -238 407 -291 0 -238 -407 rlineto
            return
          </CharString>
          <CharString index="136">
            174 104 -251 -391 -383 -81 -239 return
          </CharString>
          <CharString index="137">
            -27 -24 -53 -31 -33 8 13 -40 vhcurveto
            -43 14 rlineto
            return
          </CharString>
          <CharString index="138">
            -256 135 -109 0 217 -317 return
          </CharString>
          <CharString index="139">
            1661 744 118 callsubr
            return
          </CharString>
          <CharString index="140">
            34 101 vvcurveto
            1102 107 callgsubr
            return
          </CharString>
          <CharString index="141">
            1138 rmoveto
            34 callgsubr
            return
          </CharString>
          <CharString index="142">
            -271 0 -221 -366 rlineto
            endchar
          </CharString>
          <CharString index="143">
            17 -54 -54 15 131 callsubr
            return
          </CharString>
          <CharString index="144">
            rmoveto
            218 vlineto
            -706 -245 rlineto
            return
          </CharString>
          <CharString index="145">
            -904 vlineto
            -366 -64 -139 return
          </CharString>
          <CharString index="146">
            -336 268 -194 324 return
          </CharString>
          <CharString index="147">
            -63 -54 -78 -77 63 -55 78 hvcurveto
            return
          </CharString>
          <CharString index="148">
            -81 -69 -97 -98 81 -70 99 hvcurveto
            return
          </CharString>
          <CharString index="149">
            1199 60 507 rmoveto
            return
          </CharString>
          <CharString index="150">
            -132 -87 -119 -47 vhcurveto
            return
          </CharString>
          <CharString index="151">
            -119 26 139 -63 141 hhcurveto
            108 94 26 37 51 hvcurveto
            83 vlineto
            -2 -9 -13 -2 -15 hhcurveto
            -48 -39 34 78 hvcurveto
            427 vlineto
            268 -194 119 -341 -335 -185 -131 -153 -100 80 -70 109 109 82 78 102 59 -30 52 -45 31 vhcurveto
            5 23 25 2 26 hhcurveto
            152 78 -69 -170 hvcurveto
            -86 vlineto
            -197 -39 rlineto
            -342 -67 -117 -116 -153 vvcurveto
            -147 116 -102 189 vhcurveto
            135 318 rmoveto
            102 51 68 129 32 vhcurveto
            36 8 rlineto
            -280 vlineto
            -41 -15 -40 -26 -54 hhcurveto
            -60 -47 46 91 hvcurveto
            return
          </CharString>
          <CharString index="152">
            rmoveto
            -120 -177 -45 -36 -115 -21 rrcurveto
            -87 459 87 vlineto
            -128 22 -7 34 97 161 rrcurveto
            158 264 162 -270 91 -156 -7 -32 -130 -23 rlinecurve
            -87 822 87 vlineto
            -93 30 -46 44 -86 145 rrcurveto
            -290 486 224 332 118 177 47 35 114 21 rlinecurve
            87 -455 -87 vlineto
            127 -22 6 -34 -95 -161 rrcurveto
            -146 -248 -151 254 -91 156 5 32 132 23 rlinecurve
            87 -823 -88 vlineto
            94 -29 45 -45 86 -144 280 -469 rcurveline
            endchar
          </CharString>
          <CharString index="153">
            rmoveto
            -683 -87 hlineto
            110 -17 25 -40 -2 -98 rrcurveto
            -28 -932 -5 -132 -19 -32 -110 -19 rlinecurve
            -87 416 88 vlineto
            -115 21 -19 29 -1 132 rrcurveto
            -5 945 366 -1215 278 0 119 460 223 754 22 -993 2 -89 -26 -26 -109 -19 rlinecurve
            -87 755 87 vlineto
            -118 20 -21 26 -3 93 rrcurveto
            -26 992 -2 93 26 27 116 19 rlinecurve
            87 vlineto
            -684 2 -229 -880 rlineto
            endchar
          </CharString>
          <CharString index="154">
            291 -152 235 -225 116 vhcurveto
            -12 53 57 -6 56 hhcurveto
            166 113 70 127 1 hvcurveto
            1 117 -99 116 -157 53 rrcurveto
            -85 hlineto
            25 -28 18 -61 -1 -57 rrcurveto
            -131 -1 -86 -108 -157 -107 -104 22 -128 -64 callgsubr
            29 callsubr
            83 callsubr
            endchar
          </CharString>
          <CharString index="155">
            rmoveto
            283 -246 147 -436 vhcurveto
            -782 77 callsubr
            -13 callsubr
            314 159 vlineto
            395 287 163 295 hvcurveto
            -510 -19 rmoveto
            -199 -102 -129 -176 -8 vhcurveto
            -53 -3 0 688 53 -3 rlineto
            192 -9 86 -138 -199 vvcurveto
            endchar
          </CharString>
          <CharString index="156">
            10 477 rlineto
            -84 hlineto
            -69 -290 -86 -66 -281 -13 rrcurveto
            -177 -8 694 1260 rlineto
            84 -1204 vlineto
            -11 -438 rlineto
            83 hlineto
            60 247 81 70 268 14 rrcurveto
            182 7 -693 -1260 rlineto
            -84 vlineto
            return
          </CharString>
          <CharString index="157">
            rmoveto
            -580 -72 0 -83 54 -17 rlineto
            60 -20 10 -16 -72 vvcurveto
            -450 vlineto
            -224 134 -115 206 193 129 87 118 48 vhcurveto
            -197 vlineto
            186 callsubr
            endchar
          </CharString>
          <CharString index="158">
            rmoveto
            129 90 95 235 -12 hvcurveto
            -94 hlineto
            -87 -27 -36 -51 -31 -26 13 26 -43 vhcurveto
            -30 20 rlineto
            38 -62 -54 19 -65 hhcurveto
            -129 -89 -96 -236 12 hvcurveto
            94 hlineto
            89 return
          </CharString>
          <CharString index="159">
            1410 60 502 124 callsubr
            -67 callgsubr
            return
          </CharString>
          <CharString index="160">
            203 -100 153 -157 79 hvcurveto
            -16 58 66 -9 65 hhcurveto
            156 111 68 123 1 hvcurveto
            1 116 189 callsubr
            endchar
          </CharString>
          <CharString index="161">
            -28 14 29 -46 vhcurveto
            -33 22 rlineto
            43 -66 -58 21 -70 104 callgsubr
            return
          </CharString>
          <CharString index="162">
            -203 -133 vhcurveto
            33 -75 rlineto
            478 -31 callgsubr
          </CharString>
          <CharString index="163">
            hvcurveto
            -103 hlineto
            -54 -8 -105 -35 -146 hhcurveto
            -145 -106 36 53 -8 hvcurveto
            -103 hlineto
            -161 -6 143 -95 225 hhcurveto
            return
          </CharString>
          <CharString index="164">
            819 87 vlineto
            -108 20 -32 36 -58 166 rrcurveto
            -952 265 rmoveto
            175 552 177 -552 rlineto
            return
          </CharString>
          <CharString index="165">
            567 61 0 83 -51 16 rlineto
            -56 19 -9 18 72 vvcurveto
            792 vlineto
            -571 -72 0 -83 22 callgsubr
            return
          </CharString>
          <CharString index="166">
            562 vlineto
            234 -16 0 138 -234 -15 rlineto
            299 -80 vlineto
            -480 -340 rlineto
            -82 110 vlineto
            return
          </CharString>
          <CharString index="167">
            206 175 65 119 87 vhcurveto
            -1 87 rlineto
            -42 -48 -85 -30 -83 hhcurveto
            201 callsubr
            return
          </CharString>
          <CharString index="168">
            1153 rmoveto
            254 122 166 175 27 -2 24 -4 20 hvcurveto
            return
          </CharString>
          <CharString index="169">
            334 407 rmoveto
            -356 -10 hlineto
            243 -397 rlineto
            117 hlineto
            return
          </CharString>
          <CharString index="170">
            hhcurveto
            72 47 -30 -53 -51 -33 -48 -103 -56 hvcurveto
            105 hlineto
            226 64 return
          </CharString>
          <CharString index="171">
            1547 rmoveto
            -254 -122 -167 -175 -26 2 -24 return
          </CharString>
          <CharString index="172">
            1465 rmoveto
            137 80 93 165 -3 hvcurveto
            -101 hlineto
            -57 return
          </CharString>
          <CharString index="173">
            -56 15 21 -29 vhcurveto
            -1 -74 rlineto
            -49 46 86 -33 106 hhcurveto
            endchar
          </CharString>
          <CharString index="174">
            rmoveto
            -382 274 -192 369 180 callsubr
            endchar
          </CharString>
          <CharString index="175">
            rmoveto
            254 162 254 -162 102 0 -221 366 return
          </CharString>
          <CharString index="176">
            29 6 29 -1 rrcurveto
            55 -1 41 -19 -38 vvcurveto
            -37 -37 -21 return
          </CharString>
          <CharString index="177">
            105 callsubr
            -67 -68 -183 -51 callgsubr
          </CharString>
          <CharString index="178">
            1349 rmoveto
            -131 140 -87 207 207 return
          </CharString>
          <CharString index="179">
            -571 -72 0 -83 51 -17 rlineto
            -83 callsubr
            return
          </CharString>
          <CharString index="180">
            -237 407 -292 0 -237 -407 rlineto
            return
          </CharString>
          <CharString index="181">
            218 -317 294 0 217 317 rlineto
            return
          </CharString>
          <CharString index="182">
            140 86 132 130 -140 88 -207 return
          </CharString>
          <CharString index="183">
            95 352 -95 0 85 -323 218 -58 0 return
          </CharString>
          <CharString index="184">
            -87 hlineto
            -64 callsubr
            -84 callsubr
            return
          </CharString>
          <CharString index="185">
            -88 vlineto
            -106 callgsubr
            -23 -96 -17 vhcurveto
            -87 return
          </CharString>
          <CharString index="186">
            -94 -81 -116 -114 94 -82 116 hvcurveto
            return
          </CharString>
          <CharString index="187">
            rmoveto
            724 -92 0 69 -724 208 rlineto
            return
          </CharString>
          <CharString index="188">
            rmoveto
            185 vlineto
            -724 -208 rlineto
            -69 vlineto
            return
          </CharString>
          <CharString index="189">
            34 callsubr
            99 -86 122 hvcurveto
            return
          </CharString>
          <CharString index="190">
            -189 -176 -102 252 390 vhcurveto
            return
          </CharString>
          <CharString index="191">
            98 81 69 99 98 -81 69 -98 hvcurveto
            endchar
          </CharString>
          <CharString index="192">
            1 -64 rlineto
            3 8 19 4 17 hhcurveto
            56 return
          </CharString>
          <CharString index="193">
            1 -64 rlineto
            3 8 20 4 16 hhcurveto
            return
          </CharString>
          <CharString index="194">
            -104 -58 -138 111 callsubr
            return
          </CharString>
          <CharString index="195">
            vlineto
            -75 -20 -23 129 callsubr
            return
          </CharString>
          <CharString index="196">
            -1160 -97 callsubr
            return
          </CharString>
          <CharString index="197">
            -294 0 -218 -316 rlineto
            return
          </CharString>
          <CharString index="198">
            682 -23 -97 callsubr
            return
          </CharString>
          <CharString index="199">
            362 -23 -100 callsubr
            return
          </CharString>
          <CharString index="200">
            rmoveto
            725 151 -725 hlineto
            return
          </CharString>
          <CharString index="201">
            vlineto
            -74 -20 -23 -96 -17 vhcurveto
            -87 return
          </CharString>
          <CharString index="202">
            rmoveto
            380 292 163 319 227 -130 163 -284 89 hvcurveto
            -137 42 rlineto
            -152 48 -64 61 95 vvcurveto
            101 78 73 147 186 134 -147 -215 46 vhcurveto
            84 hlineto
            -6 387 rlineto
            58 -95 -167 34 -196 hhcurveto
            -422 -249 -186 -292 -223 144 -155 270 -84 hvcurveto
            137 -42 rlineto
            155 -48 62 -67 -101 vvcurveto
            -106 -88 -77 -147 -196 -180 157 258 -53 vhcurveto
            -83 hlineto
            12 -436 rlineto
            -56 113 201 -40 208 hhcurveto
            return
          </CharString>
          <CharString index="203">
            rmoveto
            -221 329 161 213 84 122 47 31 84 14 rlinecurve
            88 -395 -88 vlineto
            96 -18 4 -28 -73 -122 rrcurveto
            -74 -113 -78 115 -75 119 8 31 96 16 rlinecurve
            88 -689 -88 vlineto
            57 -14 34 -26 71 -104 rrcurveto
            223 -330 -156 -198 -97 -130 -43 -33 -94 -19 rlinecurve
            -87 408 87 vlineto
            -91 17 -8 31 73 120 rrcurveto
            74 112 75 -111 76 -120 -11 -32 -94 -17 rlinecurve
            -87 690 87 vlineto
            -56 16 -35 28 -71 101 rrcurveto
            endchar
          </CharString>
          <CharString index="204">
            rmoveto
            -183 134 -98 197 -59 vhcurveto
            97 -27 rlineto
            100 -31 42 -34 -58 vvcurveto
            -62 -58 -42 -107 -170 -113 123 142 -37 vhcurveto
            -83 hlineto
            7 -293 rlineto
            -49 95 160 -35 157 hhcurveto
            345 212 135 228 179 -104 104 -221 64 hvcurveto
            -98 28 rlineto
            -100 30 -47 33 58 vvcurveto
            61 53 39 103 137 88 -87 -136 44 vhcurveto
            84 hlineto
            -4 275 rlineto
            33 -71 -130 28 -158 hhcurveto
            -359 -195 -142 -224 hvcurveto
            return
          </CharString>
          <CharString index="205">
            rmoveto
            -130 -112 -52 -60 -61 hvcurveto
            -82 vlineto
            3 8 16 4 17 hhcurveto
            59 21 -38 -102 hvcurveto
            -68 -5 -164 -71 vvcurveto
            -282 166 -159 298 328 218 275 374 278 -97 147 -162 -153 -87 -151 -187 41 vhcurveto
            172 -18 108 -135 -158 vvcurveto
            -134 -80 -86 -106 -114 -70 87 167 -1 vhcurveto
            69 6 149 69 vvcurveto
            215 -91 110 -189 vhcurveto
            endchar
          </CharString>
          <CharString index="206">
            1650 825 -27 rmoveto
            412 338 338 412 412 -338 338 -412 -412 -338 -338 -412 -412 339 -338 411 hvcurveto
            68 vmoveto
            -370 -304 308 374 374 304 308 370 370 304 -308 -374 -374 -305 -308 -369 hvcurveto
            return
          </CharString>
          <CharString index="207">
            1826 rmoveto
            74 59 45 66 67 -59 45 -74 hvcurveto
            -17 hlineto
            -73 -59 -45 -67 -66 59 -45 73 hvcurveto
            391 hmoveto
            73 59 45 66 67 -59 45 -73 hvcurveto
            -17 hlineto
            -74 -59 -45 -67 -66 59 -45 74 hvcurveto
            return
          </CharString>
          <CharString index="208">
            rmoveto
            227 -191 126 -291 13 vhcurveto
            223 11 202 99 194 vvcurveto
            230 -244 116 -415 vhcurveto
            -770 -39 callsubr
            -84 callsubr
            190 callsubr
            endchar
          </CharString>
          <CharString index="209">
            rmoveto
            13 -693 rlineto
            -251 5 125 -108 215 hhcurveto
            165 135 83 101 67 hvcurveto
            83 vlineto
            -21 -34 -44 -10 -49 hhcurveto
            -96 -63 51 124 3 hvcurveto
            45 21 460 6 136 vhcurveto
            endchar
          </CharString>
          <CharString index="210">
            rmoveto
            141 80 80 139 -2 hvcurveto
            -103 hlineto
            -47 -1 -27 -22 -55 hhcurveto
            -31 -34 8 11 -41 hvcurveto
            -44 12 rlineto
            14 172 callsubr
            22 -56 callgsubr
            54 -13 59 hhcurveto
            return
          </CharString>
          <CharString index="211">
            514 1444 rmoveto
            -129 hlineto
            -292 -150 0 -53 140 34 rlineto
            -468 vlineto
            -61 -31 -19 -104 -11 vhcurveto
            -58 551 58 vlineto
            -103 11 -32 19 61 vvcurveto
            return
          </CharString>
          <CharString index="212">
            rmoveto
            -6 -378 rlineto
            84 hlineto
            56 204 55 60 182 12 rrcurveto
            89 4 -479 -853 rlineto
            -78 975 vlineto
            5 394 rlineto
            -84 hlineto
            -46 -216 return
          </CharString>
          <CharString index="213">
            rmoveto
            137 80 94 164 -3 hvcurveto
            -101 hlineto
            -57 30 callsubr
            18 -54 -54 14 131 callsubr
            -31 callsubr
            return
          </CharString>
          <CharString index="214">
            1164 rmoveto
            139 97 107 261 -13 hvcurveto
            -101 hlineto
            -97 -1 -29 -40 -54 hhcurveto
            -33 -29 14 29 -45 hvcurveto
            -33 22 rlineto
            43 return
          </CharString>
          <CharString index="215">
            -66 -154 -152 -117 68 99 vhcurveto
            1 -101 vlineto
            -4 -21 -2 -23 -27 vvcurveto
            -175 122 -166 254 vhcurveto
            return
          </CharString>
          <CharString index="216">
            1574 164 1223 rmoveto
            -675 vlineto
            -383 274 -192 369 198 callsubr
            return
          </CharString>
          <CharString index="217">
            -101 -41 -143 hhcurveto
            -142 -102 42 62 -8 hvcurveto
            -101 hlineto
            -189 -6 139 -112 220 hhcurveto
            endchar
          </CharString>
          <CharString index="218">
            -136 -106 59 88 vhcurveto
            -99 hlineto
            -3 -17 -2 -21 -23 vvcurveto
            -151 114 -143 232 vhcurveto
            return
          </CharString>
          <CharString index="219">
            13 hvcurveto
            100 hlineto
            87 26 35 49 31 25 -13 -26 42 vhcurveto
            30 -18 rlineto
            -38 62 52 -19 66 hhcurveto
            return
          </CharString>
          <CharString index="220">
            rmoveto
            255 162 253 -162 103 0 -221 366 35 callsubr
          </CharString>
          <CharString index="221">
            1563 rmoveto
            -274 -181 -273 181 -110 -105 callgsubr
            return
          </CharString>
          <CharString index="222">
            rmoveto
            141 81 80 139 -3 hvcurveto
            -103 hlineto
            -47 -1 -27 -22 -54 hhcurveto
            -32 -34 return
          </CharString>
          <CharString index="223">
            rmoveto
            -98 -81 -69 -98 -99 81 -69 98 97 81 69 99 98 -81 69 -97 hvcurveto
            endchar
          </CharString>
          <CharString index="224">
            463 642 rmoveto
            238 166 171 237 9 callgsubr
            return
          </CharString>
          <CharString index="225">
            154 callsubr
            -535 -24 132 callsubr
            -77 callgsubr
            return
          </CharString>
          <CharString index="226">
            1530 rmoveto
            447 308 rlineto
            9 -453 vlineto
            -104 -316 rlineto
            return
          </CharString>
          <CharString index="227">
            442 -327 302 -485 -486 -321 -324 -429 vhcurveto
            return
          </CharString>
          <CharString index="228">
            330 317 rmoveto
            -354 -9 hlineto
            223 -308 rlineto
            116 hlineto
            return
          </CharString>
          <CharString index="229">
            1544 rmoveto
            -395 -10 hlineto
            393 -397 rlineto
            125 hlineto
            return
          </CharString>
          <CharString index="230">
            61 callsubr
            -101 -1 hlineto
            -101 -115 108 callsubr
            return
          </CharString>
          <CharString index="231">
            rmoveto
            -330 172 -195 239 165 120 78 123 return
          </CharString>
          <CharString index="232">
            1530 rmoveto
            109 hlineto
            -91 316 rlineto
            -469 -8 hlineto
            return
          </CharString>
          <CharString index="233">
            -110 -109 -89 -76 -109 -108 88 -78 110 hvcurveto
            return
          </CharString>
          <CharString index="234">
            90 hlineto
            197 55 79 64 84 vvcurveto
            92 -87 62 -125 vhcurveto
            return
          </CharString>
          <CharString index="235">
            88 78 108 109 -88 76 -110 -3 callsubr
            return
          </CharString>
          <CharString index="236">
            -96 -16 vhcurveto
            -87 703 87 vlineto
            -110 19 -22 24 82 vvcurveto
            return
          </CharString>
          <CharString index="237">
            rmoveto
            225 143 95 161 -6 56 callsubr
            endchar
          </CharString>
          <CharString index="238">
            -56 hhcurveto
            -137 -80 -94 -163 3 hvcurveto
            101 hlineto
            55 return
          </CharString>
          <CharString index="239">
            rmoveto
            -373 -159 -237 -249 -9 vhcurveto
            -43 -1 return
          </CharString>
          <CharString index="240">
            -207 -140 -89 -129 vhcurveto
            260 hmoveto
            79 return
          </CharString>
          <CharString index="241">
            -72 0 -83 51 -17 rlineto
            55 -18 10 -18 -72 vvcurveto
            return
          </CharString>
          <CharString index="242">
            1492 rmoveto
            708 178 -708 hlineto
            return
          </CharString>
          <CharString index="243">
            1422 904 hmoveto
            144 callsubr
            return
          </CharString>
          <CharString index="244">
            1216 rmoveto
            746 218 -746 hlineto
            return
          </CharString>
          <CharString index="245">
            rmoveto
            195 156 94 192 28 hvcurveto
            -179 79 195 -107 202 hhcurveto
            199 171 66 111 89 hvcurveto
            87 vlineto
            -39 -47 -86 -26 -79 hhcurveto
            -185 -139 111 225 -41 hvcurveto
            597 hlineto
            4 21 3 36 37 vvcurveto
            268 -187 177 -296 -119 -120 -42 -60 -66 vhcurveto
            63 -60 -120 39 -178 hhcurveto
            -284 -184 -118 -152 -96 75 -70 105 115 85 75 98 56 -29 50 -46 30 hvcurveto
            4 23 24 3 25 hhcurveto
            156 83 -78 -182 hvcurveto
            -72 vlineto
            -207 -34 rlineto
            -326 -49 -125 -118 -163 vvcurveto
            -170 133 -88 182 vhcurveto
            725 682 rmoveto
            178 44 101 82 73 31 -91 -163 -30 0 -22 -1 -18 vhcurveto
            -228 -2 rlineto
            -1 15 0 16 16 vvcurveto
            -505 -494 rmoveto
            -58 -40 45 90 109 62 64 129 25 hvcurveto
            30 5 rlineto
            -147 vlineto
            -139 -54 -52 -69 vhcurveto
            endchar
          </CharString>
          <CharString index="246">
            rmoveto
            -1145 hlineto
            -499 -1086 -100 -219 -48 -34 -97 -18 rlinecurve
            -87 455 87 vlineto
            -126 22 -22 47 83 198 rrcurveto
            94 221 405 0 5 -357 rlineto
            -88 -21 -24 -103 -19 vhcurveto
            -87 1159 vlineto
            9 477 rlineto
            -83 hlineto
            -66 -284 -69 -70 -240 -15 rrcurveto
            -137 -8 -7 587 99 -3 110 -5 33 -50 31 -158 rlinecurve
            78 hlineto
            -5 531 rlineto
            -78 hlineto
            -28 -156 -32 -52 -111 -5 rrcurveto
            -98 -2 -7 557 116 -6 247 -15 63 -68 62 -248 rlinecurve
            84 hlineto
            -1090 335 rmoveto
            68 hlineto
            9 -653 rlineto
            -355 hlineto
            endchar
          </CharString>
          <CharString index="247">
            rmoveto
            234 -2 -196 159 -448 hhcurveto
            -786 -87 hlineto
            113 -22 23 -26 -91 vvcurveto
            -992 vlineto
            -90 -23 -26 -113 -23 vhcurveto
            -87 -43 callsubr
            409 98 vlineto
            270 -627 rlineto
            524 84 hlineto
            -53 21 -36 39 -80 173 rrcurveto
            -181 403 169 52 99 117 -1 162 rlinecurve
            -482 -24 rmoveto
            -182 -119 -108 -154 -8 vhcurveto
            -54 -2 0 617 51 -2 rlineto
            178 -10 98 -124 -181 vvcurveto
            return
          </CharString>
          <CharString index="248">
            1611 675 218 rmoveto
            454 70 vlineto
            330 -672 rlineto
            543 84 hlineto
            -61 27 -29 37 -119 231 rrcurveto
            -326 650 93 92 170 165 71 43 135 28 rlinecurve
            87 -506 -87 vlineto
            118 -21 16 -34 -107 -127 rrcurveto
            -328 -395 -70 -1 rlineto
            447 -1 callsubr
            -64 callsubr
            -84 callsubr
            -35 callgsubr
            return
          </CharString>
          <CharString index="249">
            59 -642 rmoveto
            180 hlineto
            912 1444 rlineto
            -180 hlineto
            -963 -726 -94 callgsubr
            77 63 66 39 -79 -254 -256 -35 -76 -63 hvcurveto
            1193 -734 rmoveto
            238 165 171 238 239 -165 170 -230 -238 -165 -170 -238 -239 164 -171 231 hvcurveto
            return
          </CharString>
          <CharString index="250">
            rmoveto
            325 -174 -57 callgsubr
            197 vlineto
            -567 134 callsubr
            -1025 88 callsubr
            346 vlineto
            -71 40 116 -50 117 hhcurveto
            248 63 callgsubr
            -101 -51 -40 27 32 -14 vhcurveto
            593 vlineto
            41 16 39 29 50 hhcurveto
            102 65 -132 -230 hvcurveto
            endchar
          </CharString>
          <CharString index="251">
            525 84 hlineto
            -55 23 -39 39 -114 232 rrcurveto
            -192 391 137 107 78 40 122 25 rlinecurve
            88 -508 -88 vlineto
            135 -24 2 -58 -107 -99 rrcurveto
            -211 -205 -57 -1 0 962 72 callsubr
            -65 callsubr
            -98 callsubr
            259 60 vlineto
            return
          </CharString>
          <CharString index="252">
            92 95 241 -12 hvcurveto
            -100 hlineto
            -86 -1 -26 -35 -48 hhcurveto
            -31 -26 12 26 -41 hvcurveto
            -31 18 rlineto
            39 -61 -54 19 -65 hhcurveto
            -129 -91 -96 -241 12 hvcurveto
            100 hlineto
            87 1 26 35 49 hhcurveto
            30 26 -13 -26 42 hvcurveto
            30 -18 rlineto
            -38 61 53 -19 65 hhcurveto
            return
          </CharString>
          <CharString index="253">
            87 vlineto
            -41 -48 -93 -25 -82 hhcurveto
            -194 -161 142 261 210 107 126 155 23 21 -2 -6 20 hvcurveto
            -73 -23 -52 -70 -84 vvcurveto
            -104 83 -80 106 104 88 79 118 174 -164 130 -274 -345 -265 -210 -334 return
          </CharString>
          <CharString index="254">
            47 vhcurveto
            -193 vlineto
            569 61 0 83 -53 17 rlineto
            -56 18 -9 18 72 vvcurveto
            1257 vlineto
            -572 -67 0 -83 51 -17 rlineto
            -83 callsubr
            -306 vlineto
            73 68 callgsubr
            return
          </CharString>
          <CharString index="255">
            97 callgsubr
            117 -67 -100 vhcurveto
            -1 101 72 callgsubr
            return
          </CharString>
          <CharString index="256">
            1148 rmoveto
            35 callgsubr
            95 -82 116 hvcurveto
            return
          </CharString>
          <CharString index="257">
            -325 254 -206 368 hvcurveto
            8 113 rmoveto
            -100 -58 153 278 267 47 150 101 100 57 -153 -277 -267 -46 -151 -101 hvcurveto
            return
          </CharString>
          <CharString index="258">
            436 vlineto
            31 39 98 21 101 hhcurveto
            74 76 -13 -16 38 hvcurveto
            16 34 11 58 60 vvcurveto
            125 -55 99 -112 -120 -91 -98 -247 -80 vhcurveto
            return
          </CharString>
          <CharString index="259">
            1479 rmoveto
            708 178 -708 hlineto
            354 -540 rmoveto
            84 66 60 85 86 -66 59 -84 -83 -67 -59 -86 -85 66 -60 84 hvcurveto
            return
          </CharString>
          <CharString index="260">
            209 -482 vlineto
            141 65 rlineto
            222 100 100 85 1 116 1 126 -105 102 -176 -1 rrcurveto
            -187 -115 return
          </CharString>
          <CharString index="261">
            rmoveto
            456 -348 244 -553 vhcurveto
            -708 77 callsubr
            730 vlineto
            493 386 287 457 hvcurveto
            return
          </CharString>
          <CharString index="262">
            166 171 238 239 -165 170 -231 -237 -166 -170 -238 -239 165 -171 return
          </CharString>
          <CharString index="263">
            1517 rmoveto
            706 -108 0 81 -706 245 rlineto
            -1 -565 rmoveto
            708 177 -708 hlineto
            return
          </CharString>
          <CharString index="264">
            1112 617 1046 rmoveto
            -568 134 callsubr
            -565 88 callsubr
            151 callsubr
            return
          </CharString>
          <CharString index="265">
            13 21 -44 hvcurveto
            45 22 32 48 55 vvcurveto
            80 -63 65 -85 -89 -60 -64 -87 -148 156 -103 220 vhcurveto
            return
          </CharString>
          <CharString index="266">
            -155 -178 248 -205 hhcurveto
            -191 -119 -141 -294 hvcurveto
            166 hlineto
            172 59 return
          </CharString>
          <CharString index="267">
            136 106 -59 -86 vhcurveto
            -1 99 vlineto
            3 17 2 22 22 vvcurveto
            151 -114 143 -232 vhcurveto
            return
          </CharString>
          <CharString index="268">
            8 11 -40 hvcurveto
            -45 12 rlineto
            14 172 callsubr
            22 -56 callgsubr
            55 -13 58 hhcurveto
            endchar
          </CharString>
          <CharString index="269">
            -141 -148 -90 -120 -154 vhcurveto
            110 -4 73 -63 -95 vvcurveto
            -90 -68 -56 -92 -16 vhcurveto
            return
          </CharString>
          <CharString index="270">
            77 rmoveto
            -66 -39 78 255 255 34 76 64 65 40 -78 -255 -255 -35 -76 -63 hvcurveto
            return
          </CharString>
          <CharString index="271">
            -25 -45 -44 -31 -41 -90 -48 hvcurveto
            89 hlineto
            197 55 80 64 84 vvcurveto
            92 -88 62 -124 vhcurveto
            return
          </CharString>
          <CharString index="272">
            47 callgsubr
            54 63 callsubr
            92 75 101 vvcurveto
            109 -101 73 -141 vhcurveto
            return
          </CharString>
          <CharString index="273">
            rmoveto
            108 87 74 103 103 -87 73 -108 -109 -87 -73 -103 -103 -53 callsubr
          </CharString>
          <CharString index="274">
            71 -63 89 hvcurveto
            380 hmoveto
            88 72 63 89 88 -72 63 -88 -88 -79 callgsubr
            return
          </CharString>
          <CharString index="275">
            73 14 18 75 16 vhcurveto
            88 -660 13 callsubr
            -98 callsubr
            endchar
          </CharString>
          <CharString index="276">
            1893 rmoveto
            -127 -92 -60 -66 -41 hvcurveto
            -62 vlineto
            19 25 47 15 49 hhcurveto
            return
          </CharString>
          <CharString index="277">
            1893 rmoveto
            -126 -92 -60 -66 -42 hvcurveto
            1 -62 rlineto
            19 25 47 15 return
          </CharString>
          <CharString index="278">
            1137 rmoveto
            466 397 rlineto
            10 -453 vlineto
            -123 -407 rlineto
            return
          </CharString>
          <CharString index="279">
            -55 -55 13 -58 hhcurveto
            -141 -81 -80 -139 3 hvcurveto
            103 hlineto
            47 1 26 return
          </CharString>
          <CharString index="280">
            hhcurveto
            -32 -34 7 11 -40 hvcurveto
            -45 12 rlineto
            15 -55 -55 12 -58 hhcurveto
            -141 return
          </CharString>
          <CharString index="281">
            rlineto
            -64 vlineto
            3 9 19 4 17 hhcurveto
            56 35 -23 -40 -41 -39 -22 -58 -49 return
          </CharString>
          <CharString index="282">
            -216 78 -183 137 -131 vhcurveto
            -130 -133 73 -74 137 141 rlineto
            -95 136 177 -54 205 hhcurveto
            485 321 325 429 216 -78 183 -137 130 hvcurveto
            130 133 -73 74 -137 -141 rlineto
            96 -136 -177 53 -204 -64 callgsubr
            117 86 -114 -195 43 vhcurveto
            -505 -518 rlineto
            -8 63 -3 69 73 vvcurveto
            548 -20 rmoveto
            -383 -81 -239 -189 -119 -85 115 195 -43 vhcurveto
            506 517 rlineto
            7 -62 4 -69 -74 vvcurveto
            endchar
          </CharString>
          <CharString index="283">
            rmoveto
            363 259 222 319 151 -55 125 -95 90 hvcurveto
            101 95 -68 72 -112 -105 rlineto
            66 -103 -133 36 -153 hhcurveto
            -362 -259 -221 -320 -152 56 -127 98 -91 hvcurveto
            -94 -88 67 -72 106 99 rlineto
            -64 102 132 -35 150 hhcurveto
            -157 543 rmoveto
            267 49 151 105 75 51 -79 -146 24 vhcurveto
            -301 -284 rlineto
            -2 29 -1 30 32 vvcurveto
            164 -432 rmoveto
            -73 -51 76 142 -24 hvcurveto
            300 283 rlineto
            1 -26 1 -28 -29 vvcurveto
            -267 -49 -151 -105 vhcurveto
            endchar
          </CharString>
          <CharString index="284">
            rmoveto
            178 106 102 173 84 hvcurveto
            -181 43 90 -89 152 hhcurveto
            118 100 59 90 62 hvcurveto
            82 vlineto
            -11 -12 -22 -9 -26 hhcurveto
            -62 -58 43 214 -54 hvcurveto
            -14 59 227 519 rlineto
            -392 hlineto
            -14 -68 -17 -75 -20 -78 rrcurveto
            154 -75 -119 90 -199 hhcurveto
            -284 -197 -226 -330 -338 180 -180 225 hvcurveto
            58 565 rmoveto
            247 45 129 77 71 32 -73 -202 27 vhcurveto
            35 -260 rlineto
            -139 -51 -46 -57 -60 hhcurveto
            -84 -46 117 238 hvcurveto
            endchar
          </CharString>
          <CharString index="285">
            rmoveto
            -291 177 -168 225 196 120 125 178 68 vhcurveto
            -175 44 114 -128 211 hhcurveto
            284 200 273 342 291 -107 166 -167 -172 -89 -182 -178 79 hvcurveto
            165 -21 106 -127 -149 vvcurveto
            -115 -66 -67 -95 -124 -77 110 257 vhcurveto
            230 -370 -236 vlineto
            -273 -50 -83 -84 -82 -43 95 179 196 55 195 116 109 vhcurveto
            -56 62 rlineto
            -364 -63 -214 -240 -312 vvcurveto
            endchar
          </CharString>
          <CharString index="286">
            rmoveto
            283 195 114 180 92 hvcurveto
            -1 87 -69 -64 -131 -43 -140 -2 rlinecurve
            -139 -2 -83 38 69 vvcurveto
            72 77 36 150 vhcurveto
            60 hlineto
            -63 249 rlineto
            -44 hlineto
            -147 -64 42 66 67 71 47 148 51 46 -6 -9 40 hvcurveto
            -39 -26 -27 -44 -54 vvcurveto
            -82 55 -64 103 84 66 69 86 131 -137 117 -346 -342 -194 -122 -183 -165 143 -85 223 -9 vhcurveto
            -250 -14 -139 -84 -144 vvcurveto
            -171 193 -97 275 vhcurveto
            endchar
          </CharString>
          <CharString index="287">
            364 232 226 355 3 vhcurveto
            6 818 rlineto
            -5 30 30 -3 29 hhcurveto
            156 110 69 123 118 -94 107 -152 53 hvcurveto
            -86 hlineto
            26 -28 18 -60 -1 -60 rrcurveto
            -126 -1 -89 -116 -180 hhcurveto
            -82 -88 hlineto
            131 -23 19 -28 2 -129 7 -611 rcurveline
            -247 1 -119 -142 -192 hhcurveto
            -197 -128 123 262 hvcurveto
            659 vlineto
            89 24 24 128 24 vhcurveto
            87 -779 -87 vlineto
            116 -23 25 -25 -89 vvcurveto
            return
          </CharString>
          <CharString index="288">
            38 17 48 29 58 hhcurveto
            77 49 -51 -103 hvcurveto
            -505 vlineto
            -73 -13 -19 -75 -15 vhcurveto
            -87 632 87 vlineto
            -74 15 -14 19 73 vvcurveto
            538 vlineto
            20 -2 17 -3 18 vhcurveto
            39 18 49 27 59 hhcurveto
            78 50 -51 -103 hvcurveto
            -505 vlineto
            -73 -14 -19 -75 -15 vhcurveto
            -87 660 87 vlineto
            -96 17 -20 23 74 vvcurveto
            514 vlineto
            220 -133 116 -211 -193 -135 -93 -115 -43 vhcurveto
            135 -33 -128 73 -168 hhcurveto
            -193 -134 -92 -114 -42 hvcurveto
            return
          </CharString>
          <CharString index="289">
            rmoveto
            -112 97 -82 119 176 117 116 261 141 vhcurveto
            436 817 73 140 31 30 106 20 rlinecurve
            87 -433 -87 vlineto
            139 -20 15 -30 -67 -141 rrcurveto
            -216 -449 -239 481 -57 114 5 28 129 17 rlinecurve
            87 -791 -87 vlineto
            98 -19 30 -32 65 -117 rrcurveto
            512 -929 -35 -60 -35 -43 -38 -30 rlinecurve
            2 12 1 13 14 vvcurveto
            105 -83 88 -107 -109 -82 -88 -104 vhcurveto
            endchar
          </CharString>
          <CharString index="290">
            rmoveto
            120 100 61 85 38 hvcurveto
            84 vlineto
            -12 -11 -21 -9 -26 hhcurveto
            -73 -63 99 120 10 2 14 2 12 hvcurveto
            329 27 228 214 299 vvcurveto
            -104 callsubr
            -309 230 -202 340 -18 vhcurveto
            -108 -67 -76 -91 -100 vvcurveto
            -118 104 -87 135 vhcurveto
            5 574 rmoveto
            -100 -58 153 278 267 47 150 101 100 57 -153 -277 -267 -46 -151 -101 hvcurveto
            endchar
          </CharString>
          <CharString index="291">
            470 hlineto
            12 -11 748 0 vhcurveto
            49 19 46 31 62 hhcurveto
            86 51 -61 -152 -310 -4 -341 -12 -436 hvcurveto
            469 hlineto
            -3 1110 rlineto
            277 -1 -136 124 -226 hhcurveto
            -199 -132 -102 -128 -38 hvcurveto
            137 -19 -79 90 -161 hhcurveto
            -121 -108 -53 -59 -57 hvcurveto
            -83 vlineto
            5 8 18 3 18 hhcurveto
            67 25 -39 -105 -2 hvcurveto
            -49 -20 -491 -10 -177 vhcurveto
            endchar
          </CharString>
          <CharString index="292">
            rmoveto
            330 -172 195 -240 -164 -120 -77 -123 -47 vhcurveto
            4 663 -570 -71 0 -83 50 -17 rlineto
            -83 callsubr
            -1236 280 vlineto
            127 138 rlineto
            -90 47 120 -70 148 hhcurveto
            256 216 185 364 hvcurveto
            -466 -35 rmoveto
            -245 -68 -115 -99 -51 -41 28 32 -14 vhcurveto
            593 vlineto
            39 17 41 29 51 hhcurveto
            96 68 -120 -241 hvcurveto
            return
          </CharString>
          <CharString index="293">
            578 61 0 83 -56 17 rlineto
            -60 20 -11 16 71 vvcurveto
            691 vlineto
            -3 19 20 -1 21 hhcurveto
            129 102 67 123 1 hvcurveto
            1 116 -101 110 -162 49 rrcurveto
            -86 hlineto
            22 -26 20 -53 -64 vvcurveto
            -152 -112 -88 -311 -34 vhcurveto
            -142 -14 0 -83 53 -17 rlineto
            61 -20 10 -16 -72 vvcurveto
            -524 vlineto
            -38 -19 -45 -28 -57 hhcurveto
            -83 -46 52 102 hvcurveto
            return
          </CharString>
          <CharString index="294">
            rmoveto
            192 167 84 173 106 -82 85 -137 23 hvcurveto
            121 18 77 61 91 vvcurveto
            104 -112 73 -63 callgsubr
            68 66 callgsubr
            -66 vlineto
            2 14 21 1 16 hhcurveto
            103 76 -62 -95 -86 -61 -53 -88 -28 -25 7 11 -22 hvcurveto
            40 13 28 36 43 vvcurveto
            56 -46 40 -57 -63 -43 -44 -56 -104 115 -88 183 vhcurveto
            endchar
          </CharString>
          <CharString index="295">
            1418 527 rmoveto
            -6 -378 rlineto
            83 hlineto
            56 204 56 60 181 12 rrcurveto
            89 4 -478 -853 rlineto
            -78 975 vlineto
            4 394 rlineto
            -84 hlineto
            -46 -216 -66 -68 -183 -10 rrcurveto
            -103 -4 479 854 rlineto
            79 vlineto
            -1909 -492 rmoveto
            245 68 115 99 51 41 -27 -33 13 vhcurveto
            60 callgsubr
            endchar
          </CharString>
          <CharString index="296">
            -96 115 -155 53 rrcurveto
            -86 hlineto
            25 -28 18 -60 -61 vvcurveto
            -127 -1 -91 -105 -175 -82 -78 27 -113 hhcurveto
            -368 -249 -229 -314 -325 253 -206 369 hvcurveto
            8 113 rmoveto
            -101 -57 154 278 266 46 150 102 101 56 -153 -279 -267 -45 -149 -102 hvcurveto
            return
          </CharString>
          <CharString index="297">
            770 vlineto
            377 339 143 285 hvcurveto
            -544 640 rmoveto
            -176 -90 -79 -151 -4 vhcurveto
            -78 535 hlineto
            43 -2 rlineto
            181 -6 95 -105 -163 vvcurveto
            34 -656 rmoveto
            -190 -111 -113 -199 -7 vhcurveto
            -43 -2 0 609 78 -2 rlineto
            180 -5 95 -123 -167 vvcurveto
            return
          </CharString>
          <CharString index="298">
            rmoveto
            695 vlineto
            234 -15 0 138 -234 -16 rlineto
            213 vlineto
            122 47 53 75 8 vhcurveto
            -29 -25 -18 -38 -42 vvcurveto
            -86 65 -59 81 80 65 60 85 128 -112 100 -236 -276 -193 -151 -300 vhcurveto
            -58 vlineto
            -120 -50 rlineto
            -83 116 -690 88 callsubr
            endchar
          </CharString>
          <CharString index="299">
            389 -1135 386 0 389 1117 65 187 32 33 106 20 rlinecurve
            87 -453 -87 vlineto
            137 -23 21 -37 -54 -178 rrcurveto
            -248 -799 -251 802 -55 175 24 38 132 22 rlinecurve
            87 -818 -87 vlineto
            108 -20 34 -36 56 -166 rrcurveto
            return
          </CharString>
          <CharString index="300">
            rmoveto
            359 262 220 323 328 -254 203 -363 -359 -263 -219 -323 -328 255 -204 363 hvcurveto
            7 113 rmoveto
            -99 -53 153 280 268 44 147 98 99 53 -152 -281 -268 -44 -147 -98 hvcurveto
            endchar
          </CharString>
          <CharString index="301">
            -422 297 -295 449 -26 vhcurveto
            -104 -53 -76 -94 -104 vvcurveto
            -124 103 -84 139 127 105 63 95 37 vhcurveto
            83 vlineto
            -14 -13 -25 -11 -32 hhcurveto
            -70 -70 76 109 22 3 20 5 16 hvcurveto
            450 26 294 316 410 vvcurveto
            -102 callsubr
          </CharString>
          <CharString index="302">
            288 -768 305 0 280 738 60 160 26 25 83 18 rlinecurve
            88 -374 -88 vlineto
            109 -14 9 -32 -46 -149 rrcurveto
            -125 -397 -121 395 -44 151 8 33 114 13 rlinecurve
            88 -726 -88 vlineto
            81 -18 25 -28 48 -127 rrcurveto
            return
          </CharString>
          <CharString index="303">
            rmoveto
            271 vlineto
            67 -1 215 -464 rlineto
            516 84 hlineto
            -59 23 -35 48 -99 213 rrcurveto
            -189 405 142 127 69 22 109 19 rlinecurve
            88 -465 -88 vlineto
            116 -19 11 -45 -103 -97 -227 -214 rcurveline
            -68 268 hlineto
            168 callsubr
          </CharString>
          <CharString index="304">
            -81 vlineto
            393 -324 rmoveto
            176 118 62 94 95 -118 62 -176 hvcurveto
            -80 hlineto
            -176 -118 -62 -95 -94 118 -62 176 hvcurveto
            52 77 rmoveto
            -25 hlineto
            -48 -27 32 47 49 28 32 47 hvcurveto
            25 hlineto
            47 29 -32 -49 -47 -29 -32 -47 hvcurveto
            return
          </CharString>
          <CharString index="305">
            379 215 231 351 6 vhcurveto
            9 618 3 132 17 31 107 21 rlinecurve
            87 -410 -88 vlineto
            120 -22 19 -31 3 -134 10 -584 rcurveline
            -269 5 -130 -140 -194 6 callgsubr
            -20 22 -26 -88 vvcurveto
            return
          </CharString>
          <CharString index="306">
            1603 1538 428 rmoveto
            227 -191 126 -291 13 vhcurveto
            223 11 202 99 194 vvcurveto
            230 -244 116 -415 vhcurveto
            -770 -39 callsubr
            -84 callsubr
            190 callsubr
            return
          </CharString>
          <CharString index="307">
            -483 rmoveto
            114 110 47 71 46 hvcurveto
            -1 84 rlineto
            -13 -17 -31 -9 -34 hhcurveto
            -55 -46 32 70 81 54 77 127 89 hvcurveto
            -105 hlineto
            -293 -114 -104 -119 -111 vvcurveto
            -121 100 -64 135 vhcurveto
            endchar
          </CharString>
          <CharString index="308">
            -191 -143 110 222 -42 hvcurveto
            609 84 callgsubr
            -346 -240 -217 -327 vhcurveto
            454 148 rmoveto
            180 46 103 87 -41 callgsubr
            -241 -2 rlineto
            -1 16 0 15 16 vvcurveto
            return
          </CharString>
          <CharString index="309">
            423 vlineto
            114 -3 113 -5 34 -50 31 -158 rlinecurve
            78 532 -78 hlineto
            -31 -157 -33 -51 -114 -5 rrcurveto
            -114 -3 0 579 127 -6 256 -15 70 -67 58 -250 rlinecurve
            84 hlineto
            endchar
          </CharString>
          <CharString index="310">
            66 26 hvcurveto
            -65 15 84 -37 86 hhcurveto
            65 57 15 21 31 hvcurveto
            56 vlineto
            -1 -5 -8 -1 -8 hhcurveto
            -28 -22 19 40 hvcurveto
            218 vlineto
            155 -115 68 -207 -202 -109 -76 -86 -58 48 -41 68 66 51 return
          </CharString>
          <CharString index="311">
            rmoveto
            47 vlineto
            276 398 rlineto
            -445 -60 callgsubr
            -20 23 74 vvcurveto
            627 vlineto
            73 20 79 callgsubr
            -48 vlineto
            -276 -398 rlineto
            446 vlineto
            168 callsubr
          </CharString>
          <CharString index="312">
            -65 vlineto
            1 14 21 2 16 hhcurveto
            103 76 -62 -96 -85 -61 -54 -88 -28 -25 7 11 -22 hvcurveto
            40 14 28 36 42 vvcurveto
            56 -46 41 -57 -63 -43 -45 -56 -104 115 -87 183 vhcurveto
            return
          </CharString>
          <CharString index="313">
            785 vlineto
            291 170 121 202 hvcurveto
            -632 215 rmoveto
            117 -5 57 -83 -129 vvcurveto
            -129 -62 -82 -116 -8 vhcurveto
            -39 -1 rlineto
            438 vlineto
            endchar
          </CharString>
        <CharString name=".notdef">
          2048 99 -494 rmoveto
          -2 callgsubr
          -2 callgsubr
          213 2444 -213 hlineto
          endchar
        </CharString>
        <CharString name=".null">
          0 endchar
        </CharString>
        <CharString name="A">
          1561 1372 309 -101 callsubr
        </CharString>
        <CharString name="AE">
          1968 1871 1444 139 callsubr
        </CharString>
        <CharString name="AEacute">
          1968 1160 -79 callsubr
          820 -87 139 callsubr
        </CharString>
        <CharString name="AEmacron">
          1968 879 -69 callsubr
          992 -321 139 callsubr
        </CharString>
        <CharString name="Aacute">
          1561 722 -79 callsubr
          759 -1222 -101 callsubr
        </CharString>
        <CharString name="Abreve">
          1561 777 -34 callsubr
          87 callsubr
          595 -1243 -101 callsubr
        </CharString>
        <CharString name="Abreveacute">
          1561 1139 -19 callsubr
          362 -268 rmoveto
          226 143 95 161 -7 56 callsubr
          595 -1222 -101 callsubr
        </CharString>
        <CharString name="Abrevecyrillic">
          1561 777 1543 rmoveto
          21 callgsubr
          -53 -13 -59 hhcurveto
          -58 -54 158 callsubr
          595 -1234 -101 callsubr
        </CharString>
        <CharString name="Abrevedotbelow">
          1561 777 -34 callsubr
          87 callsubr
          595 -1243 rmoveto
          -10 callsubr
          57 callsubr
          -90 -688 -85 callsubr
          84 callsubr
        </CharString>
        <CharString name="Abrevegrave">
          1561 415 5 callsubr
          362 -545 rmoveto
          226 143 95 161 -7 56 callsubr
          595 -1222 -101 callsubr
        </CharString>
        <CharString name="Abrevehookabove">
          1561 766 2059 rmoveto
          -100 -85 -36 -53 -51 70 callgsubr
          -92 -14 hvcurveto
          77 -42 rlineto
          175 23 88 50 86 vvcurveto
          84 -95 56 -138 vhcurveto
          11 -528 rmoveto
          226 143 95 161 -7 56 callsubr
          595 -1222 -101 callsubr
        </CharString>
        <CharString name="Abrevetilde">
          1561 920 1834 rmoveto
          141 81 80 139 -3 hvcurveto
          -103 hlineto
          -47 -1 -26 -22 -55 hhcurveto
          -32 -34 7 11 -40 hvcurveto
          -45 12 rlineto
          15 -55 -55 13 -58 hhcurveto
          -141 -80 -80 -139 2 hvcurveto
          103 hlineto
          47 98 callgsubr
          -14 55 55 -13 58 hhcurveto
          -143 -303 rmoveto
          226 143 95 161 -7 56 callsubr
          595 -1222 -101 callsubr
        </CharString>
        <CharString name="Acaron">
          1561 1053 -42 callsubr
          31 callsubr
          -84 callgsubr
          211 -1552 -101 callsubr
        </CharString>
        <CharString name="Acircumflex">
          1561 541 -47 callsubr
          90 callsubr
          939 -1221 -101 callsubr
        </CharString>
        <CharString name="Acircumflexacute">
          1561 1139 1872 81 callsubr
          1 -283 -61 callsubr
          957 -1260 -101 callsubr
        </CharString>
        <CharString name="Acircumflexdotbelow">
          1561 541 -47 callsubr
          90 callsubr
          939 -1221 rmoveto
          -10 callsubr
          57 callsubr
          -90 -688 -85 callsubr
          84 callsubr
        </CharString>
        <CharString name="Acircumflexgrave">
          1561 415 1872 80 callsubr
          1 -560 -61 callsubr
          957 -1260 -101 callsubr
        </CharString>
        <CharString name="Acircumflexhookabove">
          1561 1084 85 callgsubr
          53 13 49 -17 callgsubr
          957 -1260 -101 callsubr
        </CharString>
        <CharString name="Acircumflextilde">
          1561 920 -76 callgsubr
          -26 -22 -55 173 callsubr
          -3 callgsubr
          957 -1260 -101 callsubr
        </CharString>
        <CharString name="Acyrillic">
          1561 1372 309 -101 callsubr
        </CharString>
        <CharString name="Adblgrave">
          1561 638 23 callsubr
          121 callsubr
          316 -1221 -101 callsubr
        </CharString>
        <CharString name="Adieresis">
          1561 587 -18 callsubr
          -5 callsubr
          405 -1228 -101 callsubr
        </CharString>
        <CharString name="Adieresismacron">
          1561 415 -45 callgsubr
          183 -466 rmoveto
          74 59 46 66 66 -59 45 -74 hvcurveto
          -16 hlineto
          -74 -59 -45 -66 -66 59 -46 74 hvcurveto
          390 hmoveto
          73 59 46 66 66 -59 45 -73 hvcurveto
          -17 -26 callgsubr
          417 -1238 -101 callsubr
        </CharString>
        <CharString name="Adotaccent">
          1561 777 19 callsubr
          595 -1212 -101 callsubr
        </CharString>
        <CharString name="Adotbelow">
          1561 1372 309 rmoveto
          -10 callsubr
          57 callsubr
          -90 -688 -85 callsubr
          84 callsubr
        </CharString>
        <CharString name="Adotmacron">
          1561 415 1834 93 callsubr
          362 -450 rmoveto
          80 63 52 71 73 -63 51 -80 -79 -63 -51 -73 -71 62 -52 80 hvcurveto
          595 -1226 -101 callsubr
        </CharString>
        <CharString name="Agrave">
          1561 872 -70 callgsubr
          951 -1529 -101 callsubr
        </CharString>
        <CharString name="Ahookabove">
          1561 826 169 callsubr
          64 42 164 callsubr
          546 -1584 -101 callsubr
        </CharString>
        <CharString name="Ainvertedbreve">
          1561 777 16 callsubr
          -98 callgsubr
          595 -1598 -101 callsubr
        </CharString>
        <CharString name="Alphagreek">
          1561 1372 309 -101 callsubr
        </CharString>
        <CharString name="Alphatonosgreek">
          1561 1372 309 rmoveto
          -10 callsubr
          819 87 vlineto
          -108 20 -32 36 -58 166 rrcurveto
          -1191 728 -38 callsubr
          -377 vlineto
          -28 -407 rlineto
          361 -463 rmoveto
          175 552 177 -552 rlineto
          endchar
        </CharString>
        <CharString name="Amacron">
          1561 441 -69 callsubr
          931 -1456 -101 callsubr
        </CharString>
        <CharString name="Aogonek">
          1561 1163 -36 callgsubr
          83 vlineto
          -14 -13 -25 -11 -32 -49 callgsubr
          337 87 hlineto
          -108 20 -32 36 -58 166 rrcurveto
          -10 callsubr
          367 vlineto
          -111 -52 -86 -107 -117 vvcurveto
          -124 103 -84 139 vhcurveto
          -743 1058 rmoveto
          175 552 177 -552 rlineto
          endchar
        </CharString>
        <CharString name="Aring">
          1561 465 1736 rmoveto
          -119 126 -79 186 187 126 77 121 118 -126 80 -187 -186 -126 -80 -118 vhcurveto
          233 hmoveto
          70 33 50 46 46 34 -50 -70 -73 -34 -47 -46 -46 -33 48 72 vhcurveto
          674 -1427 -101 callsubr
        </CharString>
        <CharString name="Aringacute">
          1561 1139 1874 -38 callgsubr
          400 -257 rmoveto
          168 112 46 71 71 -112 46 -168 32 callgsubr
          -46 -25 24 36 37 26 23 45 hvcurveto
          24 hlineto
          44 28 -23 -37 -36 -28 -24 -44 hvcurveto
          583 -1273 -101 callsubr
        </CharString>
        <CharString name="Aringbelow">
          1561 1372 309 rmoveto
          -10 callsubr
          57 callsubr
          -436 -855 rmoveto
          -121 140 -78 206 90 callgsubr
          -206 -140 -81 -118 vhcurveto
          259 hmoveto
          69 36 50 51 52 36 -49 -70 -72 -36 -47 -52 -51 -36 48 71 vhcurveto
          endchar
        </CharString>
        <CharString name="Atilde">
          1561 915 -54 callsubr
          91 95 241 -11 hvcurveto
          -101 hlineto
          -86 -26 -35 -49 -30 -26 12 26 -42 vhcurveto
          -31 18 rlineto
          39 -61 -53 19 -66 hhcurveto
          -128 -92 -96 -241 12 hvcurveto
          100 hlineto
          87 1 26 35 49 hhcurveto
          31 25 -13 -26 42 hvcurveto
          30 -18 rlineto
          -38 61 53 -19 66 hhcurveto
          457 -1224 -101 callsubr
        </CharString>
        <CharString name="B">
          1603 1538 428 101 callsubr
        </CharString>
        <CharString name="Bdotaccent">
          1603 778 -73 callsubr
          -74 callsubr
          -16 callsubr
          760 -1093 101 callsubr
        </CharString>
        <CharString name="Bdotbelow">
          199 callsubr
          -250 -526 -85 callsubr
          -76 callsubr
        </CharString>
        <CharString name="Becyrillic">
          1563 1505 421 rmoveto
          277 -261 143 -386 vhcurveto
          -185 501 hlineto
          190 -6 272 -7 74 -53 62 -238 rlinecurve
          84 hlineto
          -11 406 rlineto
          -1292 -87 hlineto
          113 -23 22 -25 -91 vvcurveto
          -992 vlineto
          -91 -22 -25 -113 -23 vhcurveto
          -87 810 vlineto
          402 241 152 269 hvcurveto
          -510 -1 rmoveto
          -186 -89 -121 -171 -8 vhcurveto
          -62 -3 0 633 62 -2 rlineto
          162 -8 98 -118 -187 vvcurveto
          endchar
        </CharString>
        <CharString name="Betagreek">
          1603 1538 428 101 callsubr
        </CharString>
        <CharString name="Blinebelow">
          199 callsubr
          -597 -791 -75 callsubr
        </CharString>
        <CharString name="C">
          1472 75 717 -6 callsubr
          -33 callsubr
        </CharString>
        <CharString name="Cacute">
          1472 859 -79 callsubr
          -675 -814 -6 callsubr
          -33 callsubr
        </CharString>
        <CharString name="Ccaron">
          1472 1190 25 callsubr
          74 callsubr
          -1222 -1144 -6 callsubr
          -33 callsubr
        </CharString>
        <CharString name="Ccedilla">
          1472 75 717 rmoveto
          -439 325 -271 444 -31 vhcurveto
          -118 -130 85 callsubr
          22 callsubr
          45 91 -34 105 hhcurveto
          160 133 -29 callgsubr
          -7 hhcurveto
          54 54 rlineto
          184 2 171 37 88 58 7 446 rcurveline
          -50 callgsubr
          -33 callsubr
        </CharString>
        <CharString name="Ccedillaacute">
          1472 859 -79 callsubr
          -675 -814 rmoveto
          -439 325 -271 444 -31 vhcurveto
          -118 -130 85 callsubr
          22 callsubr
          45 91 -34 105 hhcurveto
          160 133 -29 callgsubr
          -7 hhcurveto
          54 54 rlineto
          184 2 171 37 88 58 7 446 rcurveline
          -50 callgsubr
          -33 callsubr
        </CharString>
        <CharString name="Ccircumflex">
          1472 678 -47 callsubr
          -57 callsubr
          -495 -813 -6 callsubr
          -33 callsubr
        </CharString>
        <CharString name="Cdotaccent">
          1472 914 -73 callsubr
          -74 callsubr
          41 callsubr
          -839 -804 -6 callsubr
          -33 callsubr
        </CharString>
        <CharString name="Checyrillic">
          1744 1556 226 rmoveto
          992 vlineto
          91 23 25 114 23 vhcurveto
          87 -748 -87 vlineto
          103 -19 21 -24 -88 vvcurveto
          -490 vlineto
          -21 -45 -69 -15 -75 hhcurveto
          -149 -86 80 193 hvcurveto
          253 vlineto
          88 21 24 103 19 vhcurveto
          87 -735 -87 vlineto
          103 -19 21 -24 -88 vvcurveto
          -229 vlineto
          -307 215 -143 306 169 141 33 44 80 vhcurveto
          -389 vlineto
          -96 -26 -31 -127 -21 vhcurveto
          -87 777 87 vlineto
          -114 23 -23 25 91 vvcurveto
          endchar
        </CharString>
        <CharString name="Chigreek">
          1522 282 321 45 callsubr
        </CharString>
        <CharString name="D">
          1726 32 callsubr
          endchar
        </CharString>
        <CharString name="Dbar">
          1726 52 690 rmoveto
          136 -464 hlineto
          -91 -22 -25 -114 -23 vhcurveto
          -87 730 vlineto
          493 386 287 457 456 -348 244 -553 hvcurveto
          -708 -39 callsubr
          -428 -136 vlineto
          1074 -70 132 callsubr
          rlineto
          590 231 100 -231 554 vlineto
          43 -1 rlineto
          260 -9 148 -257 -357 vvcurveto
          endchar
        </CharString>
        <CharString name="Dcaron">
          1726 1098 25 callsubr
          74 callsubr
          456 -1117 118 callsubr
          endchar
        </CharString>
        <CharString name="Dcircumflexbelow">
          1726 32 callsubr
          -642 -1184 113 callsubr
        </CharString>
        <CharString name="Dcommaaccent">
          1726 32 callsubr
          -410 -1194 -8 callsubr
          -51 -57 15 21 -28 vhcurveto
          -1 -74 rlineto
          -49 46 86 -33 105 hhcurveto
          endchar
        </CharString>
        <CharString name="Ddotaccent">
          1726 822 -73 callsubr
          -74 callsubr
          41 callsubr
          839 -777 118 callsubr
          endchar
        </CharString>
        <CharString name="Ddotbelow">
          1726 32 callsubr
          -388 -834 -61 callgsubr
        </CharString>
        <CharString name="Decyrillic">
          1558 1529 108 rmoveto
          -179 1095 hlineto
          100 25 34 122 20 vhcurveto
          87 -1316 -87 vlineto
          144 -18 40 -40 -3 -132 rrcurveto
          -4 -109 -12 -440 -44 -320 -144 -190 rlinecurve
          -141 hlineto
          -9 -475 rlineto
          83 hlineto
          285 64 89 82 283 hhcurveto
          488 hlineto
          293 82 -85 -282 65 hvcurveto
          84 hlineto
          -675 475 rmoveto
          -563 hlineto
          127 201 39 302 12 447 8 278 rcurveline
          377 hlineto
          endchar
        </CharString>
        <CharString name="Deltagreek">
          1439 31 hmoveto
          1377 251 hlineto
          -495 1194 -386 0 -496 -1194 rlineto
          154 49 rmoveto
          357 858 332 -858 rlineto
          endchar
        </CharString>
        <CharString name="Djecyrillic">
          1871 -45 callsubr
          -24 callgsubr
          425 vlineto
          20 33 52 14 54 hhcurveto
          151 90 -115 -250 -275 -86 -223 -205 -133 hvcurveto
          40 -73 rlineto
          426 119 311 249 367 vvcurveto
          309 -218 179 -307 -152 -127 -37 -39 -62 vhcurveto
          579 83 callgsubr
        </CharString>
        <CharString name="Dlinebelow">
          1726 32 callsubr
          -735 -1099 -75 callsubr
        </CharString>
        <CharString name="Dzecyrillic">
          1377 631 -27 95 callsubr
          endchar
        </CharString>
        <CharString name="Dzhecyrillic">
          1775 1587 1218 rmoveto
          91 23 25 113 23 vhcurveto
          87 -747 -87 vlineto
          104 -21 20 -25 -85 vvcurveto
          -1119 -425 1119 -1 callsubr
          -64 callsubr
          -22 callsubr
          585 vlineto
          130 26 -40 -289 53 hvcurveto
          84 hlineto
          289 52 27 40 129 hhcurveto
          585 87 hlineto
          -113 23 -23 25 91 vvcurveto
          endchar
        </CharString>
        <CharString name="E">
          1384 1280 1444 -95 callsubr
        </CharString>
        <CharString name="Eacute">
          1384 695 -79 callsubr
          694 -87 -95 callsubr
        </CharString>
        <CharString name="Ebreve">
          1384 750 -34 callsubr
          87 callsubr
          530 -108 -95 callsubr
        </CharString>
        <CharString name="Ecaron">
          1384 1026 -42 callsubr
          31 callsubr
          -84 callgsubr
          146 -417 -95 callsubr
        </CharString>
        <CharString name="Ecedilla">
          1384 707 -474 -46 callgsubr
          -8 -7 0 -8 hhcurveto
          76 75 rlineto
          6 533 vlineto
          -36 callsubr
          -11 438 rlineto
          4 callsubr
          637 vlineto
          -140 -154 86 callsubr
          56 22 callsubr
          46 90 -34 106 hhcurveto
          endchar
        </CharString>
        <CharString name="Ecedillabreve">
          1384 750 -34 callsubr
          87 callsubr
          -43 -2026 -46 callgsubr
          -8 -7 0 -8 hhcurveto
          76 75 rlineto
          6 533 vlineto
          -36 callsubr
          -11 438 rlineto
          4 callsubr
          637 vlineto
          -140 -154 86 callsubr
          56 22 callsubr
          46 90 -34 106 hhcurveto
          endchar
        </CharString>
        <CharString name="Ecircumflex">
          1384 514 -87 callgsubr
          257 -135 108 0 -217 316 90 callsubr
          874 -86 -95 callsubr
        </CharString>
        <CharString name="Ecircumflexacute">
          1384 1112 1872 81 callsubr
          1 -283 -61 callsubr
          892 -125 -95 callsubr
        </CharString>
        <CharString name="Ecircumflexbelow">
          1384 1280 1444 rmoveto
          4 callsubr
          1274 vlineto
          -36 callsubr
          -811 -1470 113 callsubr
        </CharString>
        <CharString name="Ecircumflexdotbelow">
          1384 514 -87 callgsubr
          257 -135 108 0 -217 316 90 callsubr
          874 -86 rmoveto
          4 callsubr
          1274 vlineto
          -36 callsubr
          -556 -1120 116 callsubr
        </CharString>
        <CharString name="Ecircumflexgrave">
          1384 388 1872 80 callsubr
          1 -560 -61 callsubr
          892 -125 -95 callsubr
        </CharString>
        <CharString name="Ecircumflexhookabove">
          1384 1057 85 callgsubr
          54 13 48 -17 callgsubr
          892 -125 -95 callsubr
        </CharString>
        <CharString name="Ecircumflextilde">
          1384 893 -76 callgsubr
          -26 -22 -55 173 callsubr
          -3 callgsubr
          892 -125 -95 callsubr
        </CharString>
        <CharString name="Ecyrillic">
          1485 75 717 -6 callsubr
          -217 -126 269 320 -10 hvcurveto
          489 -14 0 139 -489 -14 rlineto
          340 15 129 224 208 hhcurveto
          -12 callgsubr
        </CharString>
        <CharString name="Edblgrave">
          1384 611 23 callsubr
          121 callsubr
          251 -86 -95 callsubr
        </CharString>
        <CharString name="Edieresis">
          1384 560 -18 callsubr
          -5 callsubr
          340 -93 -95 callsubr
        </CharString>
        <CharString name="Edotaccent">
          1384 750 19 callsubr
          530 -77 -95 callsubr
        </CharString>
        <CharString name="Edotbelow">
          1384 1280 1444 rmoveto
          4 callsubr
          1274 vlineto
          -36 callsubr
          -556 -1120 116 callsubr
        </CharString>
        <CharString name="Efcyrillic">
          2181 53 720 rmoveto
          -279 229 -192 584 -12 vhcurveto
          -23 vlineto
          -100 -24 -34 -122 -20 vhcurveto
          -87 742 87 vlineto
          -122 20 -24 34 100 vvcurveto
          23 vlineto
          585 12 227 184 289 vvcurveto
          278 -225 195 -587 12 vhcurveto
          23 vlineto
          100 24 34 122 20 vhcurveto
          87 -742 -87 vlineto
          122 -20 24 -34 -100 vvcurveto
          -23 vlineto
          -590 -11 -223 -186 -290 vvcurveto
          1565 1 rmoveto
          -199 -96 -156 -206 -25 vhcurveto
          763 vlineto
          220 -24 82 -156 -203 vvcurveto
          -1055 1 rmoveto
          200 96 156 207 26 vhcurveto
          -764 vlineto
          -220 23 -83 156 203 vvcurveto
          endchar
        </CharString>
        <CharString name="Egrave">
          1384 845 -70 callgsubr
          886 -394 -95 callsubr
        </CharString>
        <CharString name="Ehookabove">
          1384 799 169 callsubr
          65 41 164 callsubr
          481 -449 -95 callsubr
        </CharString>
        <CharString name="Einvertedbreve">
          1384 750 16 callsubr
          -98 callgsubr
          530 -463 -95 callsubr
        </CharString>
        <CharString name="Elcyrillic">
          1601 28 callgsubr
          370 -1110 hlineto
          -93 -23 -25 -113 -21 vhcurveto
          -87 758 87 vlineto
          -113 21 -23 25 93 vvcurveto
          992 vlineto
          93 23 25 113 21 vhcurveto
          87 -1297 -19 callgsubr
          endchar
        </CharString>
        <CharString name="Emacron">
          1384 414 -69 callsubr
          866 -321 -95 callsubr
        </CharString>
        <CharString name="Emacronacute">
          1384 1112 -19 callsubr
          -216 vmoveto
          725 151 -725 hlineto
          892 -290 -95 callsubr
        </CharString>
        <CharString name="Emacrongrave">
          1384 388 5 callsubr
          -493 vmoveto
          725 151 -725 hlineto
          892 -290 -95 callsubr
        </CharString>
        <CharString name="Emcyrillic">
          1956 736 1444 46 callsubr
        </CharString>
        <CharString name="Encyrillic">
          9 callsubr
          -68 callsubr
          -58 callsubr
          -43 callsubr
          endchar
        </CharString>
        <CharString name="Eogonek">
          1384 1067 -484 rmoveto
          128 104 63 95 38 hvcurveto
          -1 83 rlineto
          -14 -14 -24 -11 -31 -49 callgsubr
          188 hlineto
          -36 callsubr
          -11 438 rlineto
          -1228 -39 callsubr
          -22 callsubr
          970 vlineto
          -111 -52 -85 -107 -117 vvcurveto
          -124 103 -84 138 vhcurveto
          endchar
        </CharString>
        <CharString name="Epsilongreek">
          1384 1280 1444 -95 callsubr
        </CharString>
        <CharString name="Epsilontonosgreek">
          1809 1705 1444 rmoveto
          -1229 -39 callsubr
          -22 callsubr
          1275 vlineto
          10 477 rlineto
          -84 hlineto
          -68 -284 -79 -72 -257 -13 rrcurveto
          -174 -8 0 587 127 -3 115 -5 35 -50 30 -158 rlinecurve
          78 531 -78 hlineto
          -31 -156 -33 -52 -116 -5 rrcurveto
          -127 -2 0 557 147 -6 256 -14 70 -70 60 -248 rlinecurve
          84 hlineto
          -1584 31 -38 callsubr
          -17 callsubr
        </CharString>
        <CharString name="Ercyrillic">
          1580 1516 1014 48 callsubr
        </CharString>
        <CharString name="Ereversedcyrillic">
          1488 105 67 rmoveto
          -58 91 187 -36 177 hhcurveto
          507 346 301 456 455 -346 286 -506 -200 -167 -37 -55 -87 hvcurveto
          -10 -375 rlineto
          84 hlineto
          227 50 121 123 169 hhcurveto
          205 136 -218 -345 14 hvcurveto
          -491 13 0 -139 492 13 rlineto
          -336 -11 -129 -252 -217 hhcurveto
          -161 -126 106 246 -55 hvcurveto
          -83 hlineto
          endchar
        </CharString>
        <CharString name="Escyrillic">
          1472 75 717 -6 callsubr
          -33 callsubr
        </CharString>
        <CharString name="Etagreek">
          9 callsubr
          -68 callsubr
          -58 callsubr
          -43 callsubr
          endchar
        </CharString>
        <CharString name="Etatonosgreek">
          2211 1099 218 rmoveto
          465 438 -465 vlineto
          -88 -22 67 callgsubr
          992 vlineto
          93 22 25 114 21 vhcurveto
          87 -747 -87 vlineto
          103 -19 22 -24 -88 vvcurveto
          -436 -438 14 callgsubr
          -43 callsubr
          -967 819 -38 callsubr
          -17 callsubr
        </CharString>
        <CharString name="Etilde">
          1384 888 -54 callsubr
          12 callsubr
          12 hvcurveto
          100 hlineto
          87 1 26 51 callgsubr
          392 -89 -95 callsubr
        </CharString>
        <CharString name="Etildebelow">
          1384 1280 1444 rmoveto
          4 callsubr
          1274 vlineto
          -36 callsubr
          -419 -1448 51 callsubr
          41 callgsubr
        </CharString>
        <CharString name="F">
          1307 1259 1444 rmoveto
          -1207 77 callsubr
          -13 callsubr
          202 callsubr
        </CharString>
        <CharString name="Fdotaccent">
          1307 733 -73 callsubr
          -74 callsubr
          -16 callsubr
          526 -77 rmoveto
          -1207 77 callsubr
          -13 callsubr
          202 callsubr
        </CharString>
        <CharString name="G">
          1626 75 712 -11 callsubr
        </CharString>
        <CharString name="Gacute">
          1626 858 -21 callsubr
          -15 callsubr
          -673 -819 -11 callsubr
        </CharString>
        <CharString name="Gammagreek">
          1296 1246 1444 rmoveto
          -1194 -39 callsubr
          -22 callsubr
          -13 callsubr
          1102 vlineto
          135 -5 238 -10 69 -53 57 -238 rlinecurve
          83 hlineto
          endchar
        </CharString>
        <CharString name="Gbreve">
          1626 913 -34 callsubr
          -105 -58 -137 111 callsubr
          -838 -840 -11 callsubr
        </CharString>
        <CharString name="Gcaron">
          1626 1189 25 callsubr
          -52 callgsubr
          -1221 -1149 -11 callsubr
        </CharString>
        <CharString name="Gcircumflex">
          1626 676 1530 rmoveto
          257 135 256 -135 109 0 -217 316 -57 callsubr
          -494 -818 -11 callsubr
        </CharString>
        <CharString name="Gcommaaccent">
          1626 75 712 rmoveto
          -439 333 -300 500 227 222 46 84 126 vhcurveto
          415 vlineto
          83 20 27 102 15 vhcurveto
          87 -674 -87 vlineto
          109 -14 21 -27 -83 vvcurveto
          -396 vlineto
          -19 -20 -44 -14 -53 hhcurveto
          -216 -117 290 344 377 126 253 228 182 127 -178 -235 54 hvcurveto
          83 hlineto
          -7 443 rlineto
          57 -91 -178 30 -199 hhcurveto
          -488 -373 -267 -492 hvcurveto
          795 -1186 -26 callsubr
          -103 -80 -41 callsubr
          69 callsubr
          -64 -51 66 callsubr
        </CharString>
        <CharString name="Gdotaccent">
          1626 913 -73 callsubr
          -74 callsubr
          41 callsubr
          -838 -809 -11 callsubr
        </CharString>
        <CharString name="Geacutecyrillic">
          1296 601 -21 callsubr
          -15 callsubr
          755 -87 rmoveto
          -1194 -39 callsubr
          -22 callsubr
          -13 callsubr
          49 callgsubr
        </CharString>
        <CharString name="Gecyrillic">
          1296 1246 1444 rmoveto
          -1194 -39 callsubr
          -22 callsubr
          -13 callsubr
          49 callgsubr
        </CharString>
        <CharString name="Germandbls">
          1709 674 hmoveto
          1344 vlineto
          138 -6 rlineto
          229 -11 97 -103 -134 vvcurveto
          -120 -75 -71 -120 -12 vhcurveto
          -313 vlineto
          206 -48 101 -122 -147 vvcurveto
          -103 -51 -62 -91 -121 -91 148 202 -32 vhcurveto
          -84 -388 hlineto
          -44 66 127 -35 156 hhcurveto
          259 256 136 293 239 -146 194 -228 64 hvcurveto
          200 15 120 92 135 vvcurveto
          177 -192 124 -447 vhcurveto
          -900 -87 hlineto
          114 -19 23 -26 -87 vvcurveto
          -1006 vlineto
          -87 -23 -26 -114 -19 vhcurveto
          -87 vlineto
          endchar
        </CharString>
        <CharString name="Geupturncyrillic">
          1268 1221 1337 rmoveto
          9 446 rlineto
          -84 hlineto
          -276 -83 -60 -63 -246 hhcurveto
          -705 -39 callsubr
          -22 callsubr
          -13 callsubr
          1095 vlineto
          endchar
        </CharString>
        <CharString name="Gmacron">
          1626 577 -69 callsubr
          -502 -1053 -11 callsubr
        </CharString>
        <CharString name="H">
          9 callsubr
          -68 callsubr
          -58 callsubr
          -43 callsubr
          endchar
        </CharString>
        <CharString name="Hacyrillic">
          1522 282 321 45 callsubr
        </CharString>
        <CharString name="Hardsigncyrillic">
          1796 1746 448 rmoveto
          280 -256 159 -388 vhcurveto
          -185 316 hlineto
          1 100 24 34 122 20 rrcurveto
          87 -1015 vlineto
          -11 -406 rlineto
          83 hlineto
          50 234 71 55 183 14 rrcurveto
          6 -1108 hlineto
          -95 -24 -31 -118 -20 vhcurveto
          -87 818 43 callgsubr
          -179 -8 vhcurveto
          -59 -3 rlineto
          679 55 vlineto
          159 -5 105 -122 -207 vvcurveto
          endchar
        </CharString>
        <CharString name="Hbar">
          9 callsubr
          786 136 99 -136 107 44 callgsubr
          -115 -437 115 -1 callsubr
          -40 callsubr
          -107 -136 -99 136 -786 -92 callgsubr
          -43 callsubr
          572 vmoveto
          222 437 -222 vlineto
          endchar
        </CharString>
        <CharString name="Hbrevebelow">
          9 callsubr
          -68 callsubr
          -58 callsubr
          -43 callsubr
          218 -685 rmoveto
          236 113 150 157 24 -1 23 -4 17 hvcurveto
          -94 -1 hlineto
          -90 -107 -60 -143 -142 -109 61 89 vhcurveto
          1 -94 vlineto
          -3 -18 -2 -22 -24 vvcurveto
          -157 113 -150 237 vhcurveto
          endchar
        </CharString>
        <CharString name="Hcaron">
          1787 1168 1860 rmoveto
          -256 -134 -256 134 -109 0 -52 callgsubr
          -601 -1642 rmoveto
          465 437 -465 vlineto
          -88 -21 67 callgsubr
          -68 callsubr
          -58 callsubr
          -43 callsubr
          endchar
        </CharString>
        <CharString name="Hcedilla">
          1787 391 3 callgsubr
          322 87 hlineto
          -104 20 -20 26 85 vvcurveto
          465 437 -465 vlineto
          -88 -21 67 callgsubr
          -68 callsubr
          -58 callsubr
          317 vlineto
          -135 -154 174 callsubr
          -47 14 19 -27 hvcurveto
          -84 vlineto
          -52 46 90 -34 105 hhcurveto
          endchar
        </CharString>
        <CharString name="Hcircumflex">
          1787 656 1530 rmoveto
          257 134 256 -134 109 0 -218 315 -294 0 -217 -315 rlineto
          126 -1312 rmoveto
          465 437 -465 vlineto
          -88 -21 67 callgsubr
          -68 callsubr
          -58 callsubr
          -43 callsubr
          endchar
        </CharString>
        <CharString name="Hdieresis">
          1787 702 1536 rmoveto
          89 71 63 89 89 -71 62 -89 -88 -71 -62 82 callgsubr
          62 -88 -88 -72 -62 -89 -89 71 -63 89 hvcurveto
          -408 -1318 rmoveto
          465 437 -465 vlineto
          -88 -21 67 callgsubr
          -68 callsubr
          -58 callsubr
          -43 callsubr
          endchar
        </CharString>
        <CharString name="Hdotaccent">
          1787 893 -73 callsubr
          78 callgsubr
          -218 -1303 rmoveto
          465 437 -465 vlineto
          -88 -21 67 callgsubr
          -68 callsubr
          -58 callsubr
          -43 callsubr
          endchar
        </CharString>
        <CharString name="Hdotbelow">
          9 callsubr
          -68 callsubr
          -58 callsubr
          -43 callsubr
          218 -332 116 callsubr
        </CharString>
        <CharString name="I">
          862 675 226 -82 callsubr
        </CharString>
        <CharString name="IAcyrillic">
          1586 107 1012 rmoveto
          -176 116 -109 160 -46 vhcurveto
          -195 -367 -89 -165 -31 -41 -59 -24 rlinecurve
          -84 500 vlineto
          315 622 rlineto
          86 -404 hlineto
          81 callgsubr
          26 90 vvcurveto
          -43 callgsubr
          -806 vlineto
          -437 -183 -183 -249 hvcurveto
          488 20 rmoveto
          186 97 115 164 9 vhcurveto
          54 2 0 -620 -59 1 rlineto
          -144 6 -112 113 188 vvcurveto
          endchar
        </CharString>
        <CharString name="IJ">
          1725 675 226 rmoveto
          -23 callsubr
          1 callsubr
          862 76 rmoveto
          916 -49 callsubr
          -37 callgsubr
          33 -75 rlineto
          477 -31 callgsubr
        </CharString>
        <CharString name="IJacute">
          1725 376 -79 callsubr
          972 -1 rmoveto
          448 308 rlineto
          9 -453 vlineto
          -104 -316 rlineto
          -455 -1305 rmoveto
          -23 callsubr
          1 callsubr
          862 76 rmoveto
          916 -49 callsubr
          -37 callgsubr
          33 -75 rlineto
          477 -31 callgsubr
        </CharString>
        <CharString name="IUcyrillic">
          2484 675 218 rmoveto
          465 135 vlineto
          -424 17 317 -286 466 hhcurveto
          481 319 325 429 443 -323 301 -478 -454 -309 -288 -393 -34 hvcurveto
          -137 436 hlineto
          85 20 26 104 20 vhcurveto
          87 -747 -87 vlineto
          -64 callsubr
          -84 callsubr
          -43 callsubr
          940 -128 rmoveto
          -170 -100 252 390 384 76 238 182 171 101 -250 -392 -1 hvcurveto
          -384 -78 -238 -181 vhcurveto
          endchar
        </CharString>
        <CharString name="Iacute">
          862 376 -79 callsubr
          408 -1305 -82 callsubr
        </CharString>
        <CharString name="Ibreve">
          862 431 -34 callsubr
          87 callsubr
          244 -1326 -82 callsubr
        </CharString>
        <CharString name="Icaron">
          862 707 -42 callsubr
          31 callsubr
          -84 callgsubr
          -140 -1635 -82 callsubr
        </CharString>
        <CharString name="Icircumflex">
          862 195 -47 callsubr
          90 callsubr
          588 -1304 -82 callsubr
        </CharString>
        <CharString name="Icyrillic">
          862 675 226 -82 callsubr
        </CharString>
        <CharString name="Idblgrave">
          862 292 23 callsubr
          121 callsubr
          -35 -1304 -82 callsubr
        </CharString>
        <CharString name="Idieresis">
          862 241 -18 callsubr
          -5 callsubr
          54 -1311 -82 callsubr
        </CharString>
        <CharString name="Idieresisacute">
          862 793 -19 callsubr
          183 -252 rmoveto
          74 59 46 66 66 -59 45 -74 hvcurveto
          -16 -26 callgsubr
          390 hmoveto
          73 59 46 66 66 -59 45 -73 hvcurveto
          -17 -26 callgsubr
          66 -1321 -82 callsubr
        </CharString>
        <CharString name="Idotaccent">
          862 431 19 callsubr
          244 -1295 -82 callsubr
        </CharString>
        <CharString name="Idotbelow">
          862 675 226 rmoveto
          -23 callsubr
          1 callsubr
          -236 -340 116 callsubr
        </CharString>
        <CharString name="Iecyrillic">
          1384 1280 1444 -95 callsubr
        </CharString>
        <CharString name="Igrave">
          862 526 -70 callgsubr
          600 -1612 -82 callsubr
        </CharString>
        <CharString name="Ihookabove">
          862 480 169 callsubr
          65 41 164 callsubr
          195 -1667 -82 callsubr
        </CharString>
        <CharString name="Iicyrillic">
          1812 675 218 rmoveto
          69 vlineto
          462 708 rlineto
          -777 vlineto
          -88 -21 67 callgsubr
          -68 callsubr
          -69 vlineto
          -462 -707 rlineto
          776 -1 callsubr
          -40 callsubr
          -84 callsubr
          -43 callsubr
          endchar
        </CharString>
        <CharString name="Iinvertedbreve">
          862 431 16 callsubr
          -98 callgsubr
          244 -1681 -82 callsubr
        </CharString>
        <CharString name="Iishortcyrillic">
          1812 906 1543 rmoveto
          21 callgsubr
          -54 -13 -58 hhcurveto
          -59 -53 158 callsubr
          -231 -1325 rmoveto
          69 vlineto
          462 708 rlineto
          -777 vlineto
          -88 -21 67 callgsubr
          -68 callsubr
          -69 vlineto
          -462 -707 rlineto
          776 -1 callsubr
          -40 callsubr
          -84 callsubr
          -43 callsubr
          endchar
        </CharString>
        <CharString name="Imacron">
          862 95 -69 callsubr
          580 -1539 -82 callsubr
        </CharString>
        <CharString name="Iocyrillic">
          1384 560 -18 callsubr
          -5 callsubr
          340 -93 -95 callsubr
        </CharString>
        <CharString name="Iogonek">
          862 434 -36 callgsubr
          -1 83 rlineto
          -14 -13 -25 -11 -31 -49 callgsubr
          307 87 hlineto
          -114 23 -22 25 91 vvcurveto
          -23 callsubr
          336 vlineto
          -110 -52 -86 -107 -117 vvcurveto
          -124 103 -84 139 vhcurveto
          endchar
        </CharString>
        <CharString name="Iotadieresisgreek">
          862 241 -18 callsubr
          -5 callsubr
          54 -1311 -82 callsubr
        </CharString>
        <CharString name="Iotagreek">
          862 675 226 -82 callsubr
        </CharString>
        <CharString name="Iotatonosgreek">
          1287 1099 226 rmoveto
          -23 callsubr
          1 callsubr
          -967 811 -38 callsubr
          -17 callsubr
        </CharString>
        <CharString name="Itilde">
          862 569 -54 callsubr
          12 callsubr
          12 hvcurveto
          100 hlineto
          87 1 26 51 callgsubr
          106 -1307 -82 callsubr
        </CharString>
        <CharString name="Itildebelow">
          862 675 226 rmoveto
          -23 callsubr
          1 callsubr
          -99 -668 51 callsubr
          41 callgsubr
        </CharString>
        <CharString name="J">
          862 675 302 rmoveto
          916 -49 callsubr
          38 callsubr
          55 callsubr
        </CharString>
        <CharString name="Jacute">
          862 377 -21 callsubr
          -15 callsubr
          408 -1229 rmoveto
          916 -49 callsubr
          38 callsubr
          55 callsubr
        </CharString>
        <CharString name="Jcircumflex">
          862 196 -47 callsubr
          -57 callsubr
          587 -1228 rmoveto
          916 -49 callsubr
          38 callsubr
          55 callsubr
        </CharString>
        <CharString name="Jecyrillic">
          862 675 302 rmoveto
          916 -49 callsubr
          38 callsubr
          55 callsubr
        </CharString>
        <CharString name="K">
          1611 675 218 10 callsubr
        </CharString>
        <CharString name="Kaacutecyrillic">
          1611 843 -79 callsubr
          -59 -1313 10 callsubr
        </CharString>
        <CharString name="Kacute">
          1611 843 -79 callsubr
          -59 -1313 10 callsubr
        </CharString>
        <CharString name="Kacyrillic">
          1611 675 218 10 callsubr
        </CharString>
        <CharString name="Kappagreek">
          1611 675 218 10 callsubr
        </CharString>
        <CharString name="Kcaron">
          1611 1174 -42 callsubr
          31 callsubr
          -84 callgsubr
          -607 -1643 10 callsubr
        </CharString>
        <CharString name="Kcommaaccent">
          141 callsubr
          172 -692 -26 callsubr
          -103 -79 -41 callsubr
          28 6 30 -1 rrcurveto
          55 -1 40 -19 -38 vvcurveto
          -37 -37 -21 -63 -52 66 callsubr
        </CharString>
        <CharString name="Kdotbelow">
          141 callsubr
          194 -332 -85 callsubr
          -76 callsubr
        </CharString>
        <CharString name="Klinebelow">
          141 callsubr
          -153 -597 -75 callsubr
        </CharString>
        <CharString name="L">
          21 callsubr
          endchar
        </CharString>
        <CharString name="Lacute">
          1296 376 119 callsubr
          983 -1531 rmoveto
          -4 callsubr
          14 callsubr
          endchar
        </CharString>
        <CharString name="Lambdagreek">
          1572 1378 290 rmoveto
          -399 1154 -386 0 -392 -1132 -60 -172 -34 -34 -104 -19 rlinecurve
          -87 443 87 vlineto
          -135 21 -23 41 50 160 rrcurveto
          263 816 257 -820 49 -156 -22 -41 -136 -21 rlinecurve
          -87 819 87 vlineto
          -95 19 -42 30 -53 154 rrcurveto
          endchar
        </CharString>
        <CharString name="Lcaron">
          1296 1061 1165 rmoveto
          261 426 -306 0 -47 -426 rlineto
          280 -1165 rmoveto
          -4 callsubr
          14 callsubr
          endchar
        </CharString>
        <CharString name="Lcircumflexbelow">
          21 callsubr
          399 -464 rmoveto
          254 162 254 -162 103 0 -221 366 35 callsubr
        </CharString>
        <CharString name="Lcommaaccent">
          21 callsubr
          631 -474 -8 callsubr
          -51 -57 95 callgsubr
        </CharString>
        <CharString name="Ldot">
          21 callsubr
          971 663 rmoveto
          116 94 82 114 115 -94 82 -116 -117 -94 -82 -115 -114 94 -82 117 hvcurveto
          endchar
        </CharString>
        <CharString name="Ldotbelow">
          21 callsubr
          653 -114 -85 callsubr
          -76 callsubr
        </CharString>
        <CharString name="Ldotbelowmacron">
          1296 94 -69 callsubr
          1155 -1765 rmoveto
          -4 callsubr
          14 callsubr
          653 -114 -85 callsubr
          -76 callsubr
        </CharString>
        <CharString name="Ljecyrillic">
          2266 28 callgsubr
          343 -1110 hlineto
          -93 -22 -25 -114 -21 vhcurveto
          -87 814 vlineto
          403 235 170 278 280 -255 159 -388 hvcurveto
          -186 316 hlineto
          100 25 34 122 20 vhcurveto
          87 -1282 -19 callgsubr
          1706 278 rmoveto
          -201 -80 -133 -178 -8 vhcurveto
          -61 -3 rlineto
          679 56 vlineto
          158 -5 105 -122 -207 vvcurveto
          endchar
        </CharString>
        <CharString name="Llinebelow">
          21 callsubr
          306 -379 -75 callsubr
        </CharString>
        <CharString name="Lslash">
          1296 52 625 rmoveto
          136 32 rlineto
          -431 -92 callgsubr
          1197 vlineto
          -4 callsubr
          rrcurveto
          -114 -5 0 670 297 70 0 105 -297 -69 rlineto
          337 vlineto
          93 24 30 122 21 vhcurveto
          87 -103 callgsubr
          -455 vlineto
          -136 -32 rlineto
          endchar
        </CharString>
        <CharString name="M">
          1956 736 1444 46 callsubr
        </CharString>
        <CharString name="Macute">
          1956 916 -79 callsubr
          -71 -87 46 callsubr
        </CharString>
        <CharString name="Mdotaccent">
          1956 971 -73 callsubr
          -74 callsubr
          -16 callsubr
          -235 -77 46 callsubr
        </CharString>
        <CharString name="Mdotbelow">
          1956 736 1444 rmoveto
          -683 -87 hlineto
          110 -17 25 -40 -2 -98 rrcurveto
          -28 -932 -5 -132 -19 -32 -110 -19 rlinecurve
          -87 416 88 vlineto
          -115 21 -19 29 -1 132 rrcurveto
          -5 945 366 -1215 278 0 119 460 223 754 22 -993 2 -89 -26 -26 -109 -19 rlinecurve
          -87 755 87 vlineto
          -118 20 -21 26 -3 93 rrcurveto
          -26 992 -2 93 26 27 116 19 rlinecurve
          87 vlineto
          -684 2 -229 -880 rlineto
          -188 -680 -85 callsubr
          -76 callsubr
        </CharString>
        <CharString name="Mugreek">
          1956 736 1444 46 callsubr
        </CharString>
        <CharString name="N">
          1542 -20 callsubr
          -9 callsubr
          endchar
        </CharString>
        <CharString name="Nacute">
          1542 760 -79 callsubr
          47 -87 -7 callsubr
          -9 callsubr
          endchar
        </CharString>
        <CharString name="Ncaron">
          1542 1091 -42 callsubr
          31 callsubr
          295 0 217 317 rlineto
          -501 -417 -7 callsubr
          -9 callsubr
          endchar
        </CharString>
        <CharString name="Ncircumflexbelow">
          1542 -20 callsubr
          -9 callsubr
          -798 -873 rmoveto
          254 162 254 -162 77 callgsubr
        </CharString>
        <CharString name="Ncommaaccent">
          1542 -20 callsubr
          -9 callsubr
          -566 -883 -26 callsubr
          -102 -80 -41 callsubr
          29 6 29 -1 rrcurveto
          55 -1 -82 callgsubr
          -65 callgsubr
        </CharString>
        <CharString name="Ndotaccent">
          1542 815 19 callsubr
          -117 -77 -7 callsubr
          -9 callsubr
          endchar
        </CharString>
        <CharString name="Ndotbelow">
          1542 -20 callsubr
          -9 callsubr
          -544 -523 -85 callsubr
          -76 callsubr
        </CharString>
        <CharString name="Ngrave">
          1542 910 125 callsubr
          239 -394 -7 callsubr
          -9 callsubr
          endchar
        </CharString>
        <CharString name="Njecyrillic">
          2452 675 218 rmoveto
          508 411 -508 vlineto
          -85 -20 -26 -104 -20 vhcurveto
          -87 803 vlineto
          405 231 159 261 266 -257 148 -384 hvcurveto
          -187 369 -89 callgsubr
          -757 -87 vlineto
          104 -20 20 -26 -85 vvcurveto
          -393 -411 393 -1 callsubr
          -40 callsubr
          -84 callsubr
          -43 callsubr
          1220 204 rmoveto
          -186 -80 -123 -180 -8 vhcurveto
          -62 -3 0 626 57 -1 rlineto
          159 -5 106 -111 -189 vvcurveto
          endchar
        </CharString>
        <CharString name="Nlinebelow">
          1542 -20 callsubr
          -9 callsubr
          -891 -788 -75 callsubr
        </CharString>
        <CharString name="Ntilde">
          1542 953 -54 callsubr
          12 callsubr
          112 callsubr
          -255 -89 -7 callsubr
          -9 callsubr
          endchar
        </CharString>
        <CharString name="Nugreek">
          1542 -20 callsubr
          -9 callsubr
          endchar
        </CharString>
        <CharString name="O">
          1769 75 7 callsubr
          -106 callsubr
          -102 callsubr
        </CharString>
        <CharString name="OE">
          2188 75 721 rmoveto
          -456 373 -290 440 vhcurveto
          135 133 25 138 hhcurveto
          838 hlineto
          9 477 rlineto
          -83 hlineto
          -70 -285 -68 -73 -240 -12 rrcurveto
          -155 -7 0 587 117 -3 112 -5 33 -50 30 -160 rlinecurve
          79 535 -79 hlineto
          -30 -158 -33 -52 -112 -5 rrcurveto
          -117 -2 0 557 132 -6 247 -13 63 -71 61 -247 rlinecurve
          83 hlineto
          -10 437 rlineto
          -798 hlineto
          -132 -118 25 -143 hhcurveto
          -515 -320 -319 -429 hvcurveto
          511 -4 rmoveto
          380 128 255 238 32 29 -4 -10 26 vhcurveto
          -1233 vlineto
          -9 -29 -34 -4 -36 hhcurveto
          -212 -142 249 376 hvcurveto
          endchar
        </CharString>
        <CharString name="Oacute">
          1769 829 -21 callsubr
          -15 callsubr
          -644 -813 -105 callsubr
          -106 callsubr
          -102 callsubr
        </CharString>
        <CharString name="Obreve">
          1769 884 -34 callsubr
          -105 -58 -137 111 callsubr
          -809 -834 -105 callsubr
          -106 callsubr
          -102 callsubr
        </CharString>
        <CharString name="Ocaron">
          1769 1160 25 callsubr
          74 callsubr
          -1192 -1143 -105 callsubr
          -106 callsubr
          -102 callsubr
        </CharString>
        <CharString name="Ocircumflex">
          1769 648 -47 callsubr
          -57 callsubr
          -465 -812 -105 callsubr
          -106 callsubr
          -102 callsubr
        </CharString>
        <CharString name="Ocircumflexacute">
          1769 1246 1872 81 callsubr
          -283 vmoveto
          362 81 361 -81 0 72 -332 185 -59 0 -332 -185 rlineto
          -447 -851 -105 callsubr
          -106 callsubr
          -102 callsubr
        </CharString>
        <CharString name="Ocircumflexdotbelow">
          1769 648 -47 callsubr
          -57 callsubr
          -465 -812 -105 callsubr
          -106 callsubr
          120 callsubr
          -107 callgsubr
          29 callsubr
          83 callsubr
          276 -846 -61 callgsubr
        </CharString>
        <CharString name="Ocircumflexgrave">
          1769 522 1872 80 callsubr
          -560 vmoveto
          362 81 361 -81 0 72 -332 185 -59 0 -332 -185 rlineto
          -447 -851 -105 callsubr
          -106 callsubr
          -102 callsubr
        </CharString>
        <CharString name="Ocircumflexhookabove">
          1769 1191 46 callgsubr
          80 39 17 callgsubr
          -669 -504 rmoveto
          362 81 361 -81 0 72 -332 185 -59 0 -332 -185 rlineto
          -447 -851 -105 callsubr
          -106 callsubr
          -102 callsubr
        </CharString>
        <CharString name="Ocircumflextilde">
          1769 1027 1815 rmoveto
          141 80 79 140 -2 hvcurveto
          -103 hlineto
          -47 -1 -27 -22 -55 hhcurveto
          -31 -34 7 11 -41 hvcurveto
          -44 12 rlineto
          15 -55 -55 12 -58 hhcurveto
          -141 58 callgsubr
          54 -12 59 hhcurveto
          -505 -318 rmoveto
          362 81 361 -81 0 72 -332 185 -59 0 -332 -185 rlineto
          -447 -851 -105 callsubr
          -106 callsubr
          -102 callsubr
        </CharString>
        <CharString name="Ocyrillic">
          1769 75 7 callsubr
          -106 callsubr
          -102 callsubr
        </CharString>
        <CharString name="Odblgrave">
          1769 745 23 callsubr
          53 callgsubr
          -1088 -812 -105 callsubr
          -106 callsubr
          -102 callsubr
        </CharString>
        <CharString name="Odieresis">
          1769 694 1537 rmoveto
          88 71 63 89 88 -71 63 -88 -88 -72 -63 -88 -89 167 callsubr
          -999 -819 -105 callsubr
          -106 callsubr
          -102 callsubr
        </CharString>
        <CharString name="Odieresismacron">
          1769 521 -45 callgsubr
          184 -466 -35 callsubr
          -987 -829 -105 callsubr
          -106 callsubr
          -102 callsubr
        </CharString>
        <CharString name="Odotaccent">
          1769 884 -73 callsubr
          -74 callsubr
          41 callsubr
          -809 -803 -105 callsubr
          -106 callsubr
          -102 callsubr
        </CharString>
        <CharString name="Odotaccentmacron">
          1769 521 1834 93 callsubr
          363 -450 rmoveto
          80 62 52 71 73 -62 51 -80 -79 -64 -51 -73 -71 63 -52 80 hvcurveto
          -809 -817 -105 callsubr
          -106 callsubr
          -102 callsubr
        </CharString>
        <CharString name="Odotbelow">
          1769 75 7 callsubr
          -106 callsubr
          120 callsubr
          -107 callgsubr
          29 callsubr
          83 callsubr
          276 -846 -61 callgsubr
        </CharString>
        <CharString name="Ograve">
          1769 978 -71 callgsubr
          -453 -1120 -105 callsubr
          -106 callsubr
          -102 callsubr
        </CharString>
        <CharString name="Ohookabove">
          1769 932 170 callsubr
          48 -39 callgsubr
          127 callsubr
          -857 -1175 -105 callsubr
          -106 callsubr
          -102 callsubr
        </CharString>
        <CharString name="Ohorn">
          1809 75 7 callsubr
          -106 callsubr
          47 callsubr
        </CharString>
        <CharString name="Ohornacute">
          1809 834 119 callsubr
          -649 -813 -105 callsubr
          -106 callsubr
          47 callsubr
        </CharString>
        <CharString name="Ohorndotbelow">
          1809 75 7 callsubr
          -106 callsubr
          291 -152 235 -225 116 vhcurveto
          -12 53 57 -6 56 hhcurveto
          166 113 70 127 1 hvcurveto
          1 117 -99 116 -157 53 rrcurveto
          -85 hlineto
          25 -28 18 -61 -1 -57 rrcurveto
          -131 -1 -86 -108 -157 -107 -104 22 -128 -64 callgsubr
          29 callsubr
          83 callsubr
          275 -846 -85 callsubr
          84 callsubr
        </CharString>
        <CharString name="Ohorngrave">
          1809 983 125 callsubr
          -457 -1120 -105 callsubr
          -106 callsubr
          47 callsubr
        </CharString>
        <CharString name="Ohornhookabove">
          1809 937 1893 rmoveto
          -127 -92 -60 -66 -41 hvcurveto
          -1 callgsubr
          -862 -1175 -105 callsubr
          -106 callsubr
          47 callsubr
        </CharString>
        <CharString name="Ohorntilde">
          1809 1026 -54 callsubr
          12 callsubr
          112 callsubr
          -951 -815 -105 callsubr
          -106 callsubr
          47 callsubr
        </CharString>
        <CharString name="Ohungarumlaut">
          1769 645 -8 callgsubr
          -1396 -1129 -105 callsubr
          -106 callsubr
          -102 callsubr
        </CharString>
        <CharString name="Oinvertedbreve">
          1769 884 16 callsubr
          104 57 138 160 callsubr
          -809 -1189 -105 callsubr
          -106 callsubr
          -102 callsubr
        </CharString>
        <CharString name="Omacron">
          1769 548 -69 callsubr
          -473 -1047 -105 callsubr
          -106 callsubr
          -102 callsubr
        </CharString>
        <CharString name="Omacronacute">
          1769 1246 -19 callsubr
          -1 -216 93 callsubr
          -446 -1016 -105 callsubr
          -106 callsubr
          -102 callsubr
        </CharString>
        <CharString name="Omacrongrave">
          1769 522 5 callsubr
          -1 -493 93 callsubr
          -446 -1016 -105 callsubr
          -106 callsubr
          -102 callsubr
        </CharString>
        <CharString name="Omegagreek">
          1663 83 hmoveto
          675 401 hlineto
          -147 62 -72 153 278 vvcurveto
          311 114 151 176 40 callgsubr
          674 45 callgsubr
          347 33 258 212 309 vvcurveto
          308 -263 273 -518 -512 -271 -264 -327 1 vhcurveto
          -306 260 -220 345 -18 vhcurveto
          -80 vlineto
          -287 6 -204 61 -68 163 rrcurveto
          -70 hlineto
          endchar
        </CharString>
        <CharString name="Omegatonosgreek">
          1907 326 hmoveto
          676 401 hlineto
          -147 62 -73 153 278 vvcurveto
          311 115 151 175 40 callgsubr
          675 45 callgsubr
          346 33 258 212 309 vvcurveto
          308 -262 273 -519 -512 -270 -264 -327 1 vhcurveto
          -306 259 -220 346 -18 vhcurveto
          -80 vlineto
          -288 6 -203 61 -69 163 rrcurveto
          -70 hlineto
          -137 553 -38 callsubr
          -17 callsubr
        </CharString>
        <CharString name="Omicrongreek">
          1769 75 7 callsubr
          -106 callsubr
          -102 callsubr
        </CharString>
        <CharString name="Omicrontonosgreek">
          1935 241 7 callsubr
          486 485 322 325 429 120 callsubr
          -109 319 -48 callgsubr
          768 -305 rmoveto
          384 80 238 189 29 callsubr
          -188 -176 -102 252 390 vhcurveto
          endchar
        </CharString>
        <CharString name="Oogonek">
          1769 75 718 rmoveto
          194 callsubr
        </CharString>
        <CharString name="Oogonekmacron">
          1769 548 -69 callsubr
          -473 -1047 rmoveto
          194 callsubr
        </CharString>
        <CharString name="Oslash">
          1769 75 718 rmoveto
          175 callsubr
        </CharString>
        <CharString name="Oslashacute">
          1769 829 -21 callsubr
          -15 callsubr
          -644 -813 rmoveto
          175 callsubr
        </CharString>
        <CharString name="Otilde">
          1769 1021 -54 callsubr
          145 callsubr
          -946 -815 -105 callsubr
          -106 callsubr
          -102 callsubr
        </CharString>
        <CharString name="Otildeacute">
          1769 1246 -19 callsubr
          505 -244 103 callsubr
          -952 -837 -105 callsubr
          -106 callsubr
          -102 callsubr
        </CharString>
        <CharString name="Otildedieresis">
          1769 705 100 callsubr
          -35 -271 103 callsubr
          -952 -837 -105 callsubr
          -106 callsubr
          -102 callsubr
        </CharString>
        <CharString name="Otildemacron">
          1769 521 1862 93 callsubr
          506 -458 103 callsubr
          -952 -837 -105 callsubr
          -106 callsubr
          -102 callsubr
        </CharString>
        <CharString name="P">
          1580 1516 1014 48 callsubr
        </CharString>
        <CharString name="Pacute">
          1580 742 -79 callsubr
          883 -517 48 callsubr
        </CharString>
        <CharString name="Pdotaccent">
          1580 797 19 callsubr
          719 -507 48 callsubr
        </CharString>
        <CharString name="Pecyrillic">
          1775 1587 226 rmoveto
          -43 callgsubr
          -1671 -87 vlineto
          -40 callsubr
          -84 callsubr
          -35 callgsubr
          1119 425 -1119 vlineto
          81 callgsubr
          25 91 vvcurveto
          endchar
        </CharString>
        <CharString name="Phigreek">
          2082 55 721 rmoveto
          -311 268 -184 492 -12 vhcurveto
          -5 -79 -31 -30 -109 -18 rrcurveto
          -87 742 87 vlineto
          -109 18 -32 30 -5 79 rrcurveto
          492 11 269 178 312 vvcurveto
          315 -291 183 -470 12 vhcurveto
          4 83 30 31 112 18 rrcurveto
          87 -742 -87 vlineto
          112 -18 29 -31 4 -83 rrcurveto
          -468 -12 -292 -175 -317 vvcurveto
          1484 3 rmoveto
          -233 -108 -151 -165 -25 vhcurveto
          809 vlineto
          179 -24 94 -150 -226 vvcurveto
          -997 -3 rmoveto
          224 101 153 173 26 vhcurveto
          -809 vlineto
          -170 24 -104 148 234 vvcurveto
          endchar
        </CharString>
        <CharString name="Pigreek">
          1750 1562 226 rmoveto
          -43 callgsubr
          -1646 -87 vlineto
          -64 callsubr
          -84 callsubr
          -43 callsubr
          1119 400 -1119 vlineto
          -85 -21 -26 -103 -20 vhcurveto
          -87 747 87 vlineto
          -113 23 -23 25 91 vvcurveto
          endchar
        </CharString>
        <CharString name="Psigreek">
          2067 1259 242 rmoveto
          236 vlineto
          382 17 181 128 56 369 rrcurveto
          29 189 18 122 29 34 94 6 rlinecurve
          87 vlineto
          6 -37 -83 8 -70 hhcurveto
          -221 -114 -81 -237 -36 hvcurveto
          -29 -191 -35 -224 -38 -95 -126 -26 rlinecurve
          636 vlineto
          87 21 25 103 19 vhcurveto
          87 -699 -87 vlineto
          103 -19 22 -25 -87 vvcurveto
          -636 vlineto
          -127 26 -39 95 -35 224 -29 191 rcurveline
          237 -36 -114 81 -220 hhcurveto
          -70 -83 -8 -6 -37 hvcurveto
          -87 vlineto
          93 -6 30 -34 18 -122 rrcurveto
          28 -189 56 -369 182 -128 383 -17 rlinecurve
          -236 -90 callgsubr
          742 3 callsubr
          endchar
        </CharString>
        <CharString name="Q">
          1769 75 718 rmoveto
          -384 245 -279 382 -67 vhcurveto
          141 -145 rlineto
          -180 163 123 -60 183 hhcurveto
          144 140 37 67 116 hvcurveto
          81 vlineto
          -115 -14 -103 46 -179 150 -80 67 rcurveline
          285 116 174 259 315 vvcurveto
          442 -326 302 -484 -487 -322 -324 -429 vhcurveto
          536 14 rmoveto
          384 79 238 188 177 104 -251 -391 -383 -81 -239 -187 -177 -103 252 390 vhcurveto
          endchar
        </CharString>
        <CharString name="R">
          1589 1484 1051 140 callsubr
          endchar
        </CharString>
        <CharString name="Racute">
          1589 714 -79 callsubr
          879 -480 140 callsubr
          endchar
        </CharString>
        <CharString name="Rcaron">
          1589 1045 -42 callsubr
          39 callgsubr
          332 -810 140 callsubr
          endchar
        </CharString>
        <CharString name="Rcommaaccent">
          -59 callgsubr
          -172 -1501 -8 callsubr
          -51 -57 95 callgsubr
        </CharString>
        <CharString name="Rdblgrave">
          1589 630 23 callsubr
          121 callsubr
          436 -479 140 callsubr
          endchar
        </CharString>
        <CharString name="Rdotaccent">
          1589 769 -73 callsubr
          -74 callsubr
          -16 callsubr
          715 -470 140 callsubr
          endchar
        </CharString>
        <CharString name="Rdotbelow">
          -59 callgsubr
          -150 -1141 -85 callsubr
          -76 callsubr
        </CharString>
        <CharString name="Rdotbelowmacron">
          1589 433 -69 callsubr
          1051 -714 140 callsubr
          -150 -1141 -85 callsubr
          -76 callsubr
        </CharString>
        <CharString name="Rhogreek">
          1580 1516 1014 48 callsubr
        </CharString>
        <CharString name="Rinvertedbreve">
          1589 769 16 callsubr
          -98 callgsubr
          715 -856 140 callsubr
          endchar
        </CharString>
        <CharString name="Rlinebelow">
          -59 callgsubr
          -497 -1406 -75 callsubr
        </CharString>
        <CharString name="S">
          1377 631 -27 95 callsubr
          endchar
        </CharString>
        <CharString name="Sacute">
          1377 680 119 callsubr
          61 -1558 95 callsubr
          endchar
        </CharString>
        <CharString name="Sacutedotaccent">
          1377 735 1780 rmoveto
          79 63 52 71 73 -63 51 -79 -80 -63 -51 -73 -71 63 -52 80 hvcurveto
          361 -160 -38 callgsubr
          259 -1555 95 callsubr
          endchar
        </CharString>
        <CharString name="Scaron">
          1377 1010 -42 callsubr
          31 callsubr
          295 0 217 317 rlineto
          -487 -1888 95 callsubr
          endchar
        </CharString>
        <CharString name="Scarondotaccent">
          1377 735 1803 rmoveto
          79 63 51 72 73 -63 50 -79 -80 -63 101 callgsubr
          -371 80 0 -72 340 -185 62 0 340 185 rlineto
          -475 -1759 95 callsubr
          endchar
        </CharString>
        <CharString name="Scedilla">
          1377 642 -474 rmoveto
          160 133 -29 callgsubr
          -7 hhcurveto
          57 56 rlineto
          341 22 252 161 297 vvcurveto
          227 -130 163 -284 89 vhcurveto
          -137 42 rlineto
          -152 48 -64 61 95 vvcurveto
          101 78 73 147 186 134 -147 -215 46 vhcurveto
          84 hlineto
          -6 387 rlineto
          58 -95 -167 34 -196 hhcurveto
          -422 -249 -186 -292 -223 144 -155 270 -84 hvcurveto
          137 -42 rlineto
          155 -48 62 -67 -101 vvcurveto
          -106 -88 -77 -147 -196 -180 157 258 -53 vhcurveto
          -83 hlineto
          12 -436 107 -54 188 -38 197 -4 rlinecurve
          -116 -127 85 callsubr
          22 callsubr
          46 90 -34 105 hhcurveto
          endchar
        </CharString>
        <CharString name="Schwa">
          1586 731 -27 rmoveto
          495 285 303 437 507 -361 251 -491 -209 -192 -32 -55 -91 hvcurveto
          -6 -443 rlineto
          83 hlineto
          230 57 129 183 203 hhcurveto
          218 127 -225 -399 8 hvcurveto
          -926 hlineto
          -5 -30 -6 -48 -46 vvcurveto
          -380 244 -253 438 vhcurveto
          -222 563 rmoveto
          29 2 31 2 27 vhcurveto
          473 3 rlineto
          -355 -10 -84 -181 -158 hhcurveto
          -166 -59 212 234 hvcurveto
          endchar
        </CharString>
        <CharString name="Scircumflex">
          1377 498 1530 rmoveto
          257 135 256 -135 109 0 -218 316 -294 0 -217 -316 rlineto
          240 -1557 95 callsubr
          endchar
        </CharString>
        <CharString name="Scommaaccent">
          1377 631 -27 95 callsubr
          18 -447 -26 callsubr
          -102 -80 -41 callsubr
          29 6 29 -1 rrcurveto
          55 -1 -82 callgsubr
          -65 callgsubr
        </CharString>
        <CharString name="Sdotaccent">
          1377 735 -73 callsubr
          -74 callsubr
          -81 -69 -97 -98 80 -70 100 hvcurveto
          -104 -1548 95 callsubr
          endchar
        </CharString>
        <CharString name="Sdotbelow">
          1377 631 -27 95 callsubr
          40 -87 -85 callsubr
          -76 callsubr
        </CharString>
        <CharString name="Sdotbelowdotaccent">
          1377 735 -73 callsubr
          -74 callsubr
          -81 -69 -97 -98 80 -70 100 hvcurveto
          -104 -1548 95 callsubr
          40 -87 -85 callsubr
          -76 callsubr
        </CharString>
        <CharString name="Shacyrillic">
          2591 2403 226 rmoveto
          992 vlineto
          91 23 25 114 23 vhcurveto
          87 38 callgsubr
          26 103 20 vhcurveto
          87 -735 -87 vlineto
          104 -20 20 -26 -85 vvcurveto
          -1119 -377 1119 vlineto
          85 20 26 104 20 vhcurveto
          87 -747 -87 vlineto
          -64 callsubr
          -84 callsubr
          2488 87 vlineto
          -114 23 -23 25 91 vvcurveto
          endchar
        </CharString>
        <CharString name="Shchacyrillic">
          2612 2582 107 rmoveto
          -179 1111 hlineto
          91 23 25 114 23 vhcurveto
          87 38 callgsubr
          25 103 21 vhcurveto
          87 -735 -87 vlineto
          103 -21 21 -25 -85 vvcurveto
          -1119 -377 1119 vlineto
          85 20 26 104 20 vhcurveto
          87 -747 -87 vlineto
          -64 callsubr
          -84 callsubr
          2075 vlineto
          239 59 -62 -277 82 hvcurveto
          84 hlineto
          endchar
        </CharString>
        <CharString name="Sigmagreek">
          1334 1227 1444 rmoveto
          -1191 -84 hlineto
          461 -693 -451 -416 rlineto
          -251 1223 vlineto
          12 614 rlineto
          -101 hlineto
          -227 -56 -69 -58 -280 hhcurveto
          -486 hlineto
          600 486 0 24 -320 505 179 -6 276 -13 69 -76 60 -238 rlinecurve
          84 hlineto
          endchar
        </CharString>
        <CharString name="Softsigncyrillic">
          1554 1503 448 rmoveto
          280 -255 159 -389 vhcurveto
          -184 316 -89 callgsubr
          -103 callgsubr
          -84 callsubr
          812 43 callgsubr
          26 callgsubr
        </CharString>
        <CharString name="T">
          1442 -45 callsubr
          -66 callsubr
          -55 callsubr
          -56 callsubr
          33 callsubr
          endchar
        </CharString>
        <CharString name="Taugreek">
          1442 -45 callsubr
          -66 callsubr
          -55 callsubr
          -56 callsubr
          33 callsubr
          endchar
        </CharString>
        <CharString name="Tbar">
          1442 191 690 rmoveto
          286 -449 hlineto
          -101 -24 -33 -122 -20 vhcurveto
          -87 -56 callsubr
          33 101 vvcurveto
          449 287 100 -287 554 107 callgsubr
          -11 438 -1344 0 -11 -66 callsubr
          -554 -286 vlineto
          endchar
        </CharString>
        <CharString name="Tcaron">
          1442 997 25 callsubr
          -52 callgsubr
          289 -417 rmoveto
          -1344 hlineto
          -11 -66 callsubr
          -55 callsubr
          -56 callsubr
          33 callsubr
          endchar
        </CharString>
        <CharString name="Tcedilla">
          1442 692 2 callgsubr
          332 87 hlineto
          -122 20 -25 33 callsubr
          -11 438 -1344 0 -11 -66 callsubr
          -55 callsubr
          340 vlineto
          -135 -154 rlineto
          -64 vlineto
          3 8 20 4 16 hhcurveto
          57 34 -23 -40 -41 -38 -22 -59 -48 -48 14 19 -26 hvcurveto
          -1 -84 rlineto
          -52 46 90 -34 105 hhcurveto
          endchar
        </CharString>
        <CharString name="Tcircumflexbelow">
          1442 -45 callsubr
          -66 callsubr
          -55 callsubr
          -56 callsubr
          33 callsubr
          -937 -1470 68 callsubr
          35 callsubr
        </CharString>
        <CharString name="Tcommaaccent">
          1442 -45 callsubr
          -66 callsubr
          -55 callsubr
          -56 callsubr
          33 callsubr
          -705 -1480 -26 callsubr
          -103 -80 -41 callsubr
          69 callsubr
          -64 -51 66 callsubr
        </CharString>
        <CharString name="Tdotaccent">
          1442 721 -73 callsubr
          -74 callsubr
          41 callsubr
          672 -77 rmoveto
          -1344 hlineto
          -11 -66 callsubr
          -55 callsubr
          -56 callsubr
          33 callsubr
          endchar
        </CharString>
        <CharString name="Tdotbelow">
          1442 -45 callsubr
          -66 callsubr
          -55 callsubr
          -56 callsubr
          33 callsubr
          -683 -1120 -85 callsubr
          -30 callgsubr
        </CharString>
        <CharString name="Tecyrillic">
          1442 -45 callsubr
          -66 callsubr
          -55 callsubr
          -56 callsubr
          33 callsubr
          endchar
        </CharString>
        <CharString name="Thetagreek">
          1789 895 -28 rmoveto
          494 327 325 429 443 -333 302 -488 -495 -326 -325 -429 -442 333 -303 488 hvcurveto
          1 101 rmoveto
          -213 -119 240 419 415 99 224 230 214 119 -238 -421 -416 -100 -223 -230 hvcurveto
          -230 386 rmoveto
          65 hlineto
          133 20 45 64 86 hhcurveto
          31 hlineto
          85 46 -64 -133 19 hvcurveto
          66 523 -66 hlineto
          -132 -19 -46 -64 -85 hhcurveto
          -31 hlineto
          -86 -45 64 132 -20 hvcurveto
          -65 hlineto
          endchar
        </CharString>
        <CharString name="Thorn">
          1562 1512 750 rmoveto
          275 -246 123 -426 vhcurveto
          -165 55 -89 callgsubr
          -769 -87 vlineto
          -64 callsubr
          -84 callsubr
          -13 callsubr
          78 vlineto
          165 1 rlineto
          407 1 265 155 273 vvcurveto
          -510 -22 rmoveto
          -185 -107 -112 -167 -8 vhcurveto
          -53 -2 0 627 53 -2 rlineto
          183 -9 91 -132 -177 vvcurveto
          endchar
        </CharString>
        <CharString name="Tlinebelow">
          1442 -45 callsubr
          -66 callsubr
          -55 callsubr
          -56 callsubr
          33 callsubr
          -1031 -1385 -95 callgsubr
        </CharString>
        <CharString name="Tsecyrillic">
          1795 1766 107 rmoveto
          -179 1111 hlineto
          91 23 25 113 23 vhcurveto
          87 -747 -87 vlineto
          104 -20 20 -26 -85 vvcurveto
          -1119 -425 1119 vlineto
          85 20 26 104 20 vhcurveto
          87 -747 -87 vlineto
          -64 callsubr
          -84 callsubr
          1260 vlineto
          238 58 -62 -277 83 hvcurveto
          84 hlineto
          endchar
        </CharString>
        <CharString name="Tshecyrillic">
          1935 -45 callsubr
          -24 callgsubr
          422 vlineto
          22 37 60 14 66 hhcurveto
          131 77 -75 -176 hvcurveto
          -433 612 87 vlineto
          -104 21 -21 25 85 vvcurveto
          195 vlineto
          303 -216 123 -277 -163 -129 -36 -43 -73 vhcurveto
          582 83 callgsubr
        </CharString>
        <CharString name="U">
          1574 164 1223 -88 callsubr
        </CharString>
        <CharString name="Uacute">
          1574 826 -21 callsubr
          -15 callsubr
          -552 -308 -88 callsubr
        </CharString>
        <CharString name="Ubreve">
          1574 881 -34 callsubr
          -105 -58 -137 111 callsubr
          -717 -329 -88 callsubr
        </CharString>
        <CharString name="Ubrevecyrillic">
          1504 877 1543 rmoveto
          220 157 103 148 87 -60 64 -89 -86 -62 -65 -80 -55 31 -48 46 -22 hvcurveto
          -21 -44 -54 -13 -59 hhcurveto
          -58 -54 13 21 -44 hvcurveto
          45 22 32 48 55 vvcurveto
          80 -63 65 -85 -89 -60 -64 -87 -148 157 -103 219 vhcurveto
          -659 -1376 182 callsubr
        </CharString>
        <CharString name="Ucaron">
          1574 1157 25 callsubr
          74 callsubr
          -1100 -638 -88 callsubr
        </CharString>
        <CharString name="Ucircumflex">
          1574 645 -47 callsubr
          -57 callsubr
          -373 -307 -88 callsubr
        </CharString>
        <CharString name="Ucircumflexbelow">
          109 callsubr
          438 -1687 68 callsubr
          35 callsubr
        </CharString>
        <CharString name="Ucyrillic">
          1504 218 167 182 callsubr
        </CharString>
        <CharString name="Udblgrave">
          1574 742 23 callsubr
          53 callgsubr
          -996 -307 -88 callsubr
        </CharString>
        <CharString name="Udieresis">
          1574 691 -18 callsubr
          167 callsubr
          -907 -314 -88 callsubr
        </CharString>
        <CharString name="Udieresisacute">
          1574 1243 -19 callsubr
          183 -252 -35 callsubr
          -895 -324 -88 callsubr
        </CharString>
        <CharString name="Udieresisbelow">
          109 callsubr
          450 -1671 rmoveto
          103 82 70 97 98 -82 69 -103 -102 -82 -69 -98 -97 82 -70 102 hvcurveto
          483 hmoveto
          102 83 70 97 98 -83 69 -102 -102 -83 -69 -98 -97 83 -70 102 hvcurveto
          endchar
        </CharString>
        <CharString name="Udieresiscaron">
          1574 1242 -9 callgsubr
          -895 -324 -88 callsubr
        </CharString>
        <CharString name="Udieresisgrave">
          1574 519 5 callsubr
          183 -529 -35 callsubr
          -895 -324 -88 callsubr
        </CharString>
        <CharString name="Udieresismacron">
          1574 518 -45 callgsubr
          184 -466 -35 callsubr
          -895 -324 -88 callsubr
        </CharString>
        <CharString name="Udotbelow">
          109 callsubr
          692 -1337 106 callgsubr
        </CharString>
        <CharString name="Ugrave">
          1574 975 -71 callgsubr
          -361 -615 -88 callsubr
        </CharString>
        <CharString name="Uhookabove">
          1574 929 170 callsubr
          48 -39 callgsubr
          127 callsubr
          -765 -670 -88 callsubr
        </CharString>
        <CharString name="Uhorn">
          1783 165 547 67 callsubr
        </CharString>
        <CharString name="Uhornacute">
          1783 832 -79 callsubr
          -558 -984 67 callsubr
        </CharString>
        <CharString name="Uhorndotbelow">
          1783 165 547 rmoveto
          -382 274 -192 369 180 callsubr
          643 -1334 -85 callsubr
          -76 callsubr
        </CharString>
        <CharString name="Uhorngrave">
          1783 981 -71 callgsubr
          -366 -1291 67 callsubr
        </CharString>
        <CharString name="Uhornhookabove">
          1783 935 170 callsubr
          49 hhcurveto
          64 42 -25 -45 -44 -32 -41 -90 -48 hvcurveto
          127 callsubr
          -770 -1346 67 callsubr
        </CharString>
        <CharString name="Uhorntilde">
          1783 1024 -54 callsubr
          145 callsubr
          -859 -986 67 callsubr
        </CharString>
        <CharString name="Uhungarumlaut">
          1574 642 -8 callgsubr
          -1304 -624 -88 callsubr
        </CharString>
        <CharString name="Uinvertedbreve">
          1574 881 16 callsubr
          104 57 138 160 callsubr
          -717 -684 -88 callsubr
        </CharString>
        <CharString name="Umacron">
          1574 545 -69 callsubr
          -381 -542 -88 callsubr
        </CharString>
        <CharString name="Umacrondieresis">
          1574 702 100 callsubr
          -514 -243 rmoveto
          672 151 -672 hlineto
          -381 -511 -88 callsubr
        </CharString>
        <CharString name="Uogonek">
          1574 851 -36 callgsubr
          83 vlineto
          -14 -14 -25 -11 -31 hhcurveto
          -70 -70 76 109 24 4 22 6 17 hvcurveto
          308 42 174 219 5 314 rrcurveto
          9 618 3 132 17 31 107 21 rlinecurve
          87 -410 -88 vlineto
          120 -22 20 -31 2 -134 10 -584 rcurveline
          -269 5 -131 -140 -193 6 callgsubr
          -21 22 -25 -88 vvcurveto
          -675 vlineto
          -375 262 -192 359 -8 vhcurveto
          -102 -53 -74 -93 -103 vvcurveto
          -124 103 -84 139 vhcurveto
          endchar
        </CharString>
        <CharString name="Upsilondieresisgreek">
          1482 664 1537 rmoveto
          -97 callgsubr
          -79 callgsubr
          381 hmoveto
          88 71 63 89 88 -71 63 -88 -89 -71 -63 -88 -89 71 -63 89 hvcurveto
          -847 -370 -67 callsubr
        </CharString>
        <CharString name="Upsilongreek">
          1482 198 1167 -67 callsubr
        </CharString>
        <CharString name="Upsilontonosgreek">
          1947 663 1167 rmoveto
          303 -562 rlineto
          -363 vlineto
          -101 -25 -34 -122 -20 vhcurveto
          -87 780 3 callsubr
          -32 callgsubr
          30 30 104 20 rlinecurve
          87 -431 -87 vlineto
          124 -20 callgsubr
          -531 -130 -38 callsubr
          -17 callsubr
        </CharString>
        <CharString name="Uring">
          1574 569 1736 rmoveto
          -119 126 -79 186 186 126 77 121 118 -125 80 -187 -186 -126 -80 -118 vhcurveto
          232 hmoveto
          70 33 50 47 46 33 -50 -70 -73 -33 -47 -46 -47 -33 48 72 vhcurveto
          -637 -513 -88 callsubr
        </CharString>
        <CharString name="Utilde">
          1574 1018 -54 callsubr
          145 callsubr
          -854 -310 -88 callsubr
        </CharString>
        <CharString name="Utildeacute">
          1574 1243 -19 callsubr
          505 -244 103 callsubr
          -860 -332 -88 callsubr
        </CharString>
        <CharString name="Utildebelow">
          109 callsubr
          829 -1665 51 callsubr
          31 callgsubr
        </CharString>
        <CharString name="V">
          87 callgsubr
          endchar
        </CharString>
        <CharString name="Vdotbelow">
          87 callgsubr
          598 -1249 -85 callsubr
          -76 callsubr
        </CharString>
        <CharString name="Vecyrillic">
          1603 1538 428 101 callsubr
        </CharString>
        <CharString name="Vtilde">
          1548 1029 -54 callsubr
          12 callsubr
          112 callsubr
          -840 -398 rmoveto
          192 callsubr
          endchar
        </CharString>
        <CharString name="W">
          2379 179 1135 8 callsubr
        </CharString>
        <CharString name="Wacute">
          2379 1272 -21 callsubr
          -15 callsubr
          -983 -396 8 callsubr
        </CharString>
        <CharString name="Wcircumflex">
          2379 1090 1530 rmoveto
          257 135 256 -135 109 0 -217 316 -57 callsubr
          -804 -395 8 callsubr
        </CharString>
        <CharString name="Wdieresis">
          2379 1137 1537 rmoveto
          88 71 63 89 88 -71 63 -88 -88 -72 -63 -88 -89 167 callsubr
          -1338 -402 8 callsubr
        </CharString>
        <CharString name="Wdotaccent">
          2379 1327 -73 callsubr
          -74 callsubr
          41 callsubr
          -1148 -386 8 callsubr
        </CharString>
        <CharString name="Wdotbelow">
          2379 179 1135 rmoveto
          340 -1135 368 0 303 1028 293 -1028 375 0 337 1118 56 187 33 33 104 19 rlinecurve
          87 -444 -87 vlineto
          127 -21 18 -36 -42 -172 rrcurveto
          -190 -752 -199 770 -42 157 8 31 126 23 rlinecurve
          87 -759 -87 vlineto
          121 -20 11 -31 -38 -150 rrcurveto
          -198 -780 -194 756 -42 167 19 36 135 22 rlinecurve
          87 -811 -87 vlineto
          104 -19 31 -36 50 -167 rrcurveto
          1008 -1249 106 callgsubr
        </CharString>
        <CharString name="Wgrave">
          2379 1421 125 callsubr
          -791 -703 8 callsubr
        </CharString>
        <CharString name="X">
          1522 282 321 45 callsubr
        </CharString>
        <CharString name="Xdieresis">
          1522 695 -18 callsubr
          -5 callsubr
          -793 -1216 45 callsubr
        </CharString>
        <CharString name="Xdotaccent">
          1522 885 19 callsubr
          -603 -1200 45 callsubr
        </CharString>
        <CharString name="Xigreek">
          1385 1302 1444 rmoveto
          -1215 hlineto
          99 callgsubr
          386 hlineto
          247 62 -30 -185 44 hvcurveto
          84 hlineto
          -666 -242 rmoveto
          73 hlineto
          152 51 -46 -149 30 hvcurveto
          79 501 -79 hlineto
          -149 -30 -51 -46 -152 hhcurveto
          -73 hlineto
          -153 69 callgsubr
          153 hhcurveto
          668 -668 rmoveto
          19 591 rlineto
          -84 hlineto
          -219 -49 -67 -44 -266 hhcurveto
          -371 hlineto
          -266 -67 44 219 -49 hvcurveto
          -84 hlineto
          20 -591 rlineto
          endchar
        </CharString>
        <CharString name="Xigreek.1">
          1386 1325 hmoveto
          19 591 rlineto
          -83 hlineto
          -219 -50 -67 -44 -266 hhcurveto
          -145 340 hlineto
          149 51 -46 -149 30 hvcurveto
          79 501 -79 hlineto
          -148 -29 -52 -47 -149 hhcurveto
          346 153 vlineto
          247 62 -30 -185 44 hvcurveto
          84 hlineto
          -21 534 -1215 0 99 callgsubr
          155 -346 hlineto
          -151 69 callgsubr
          151 hhcurveto
          -340 -148 vlineto
          -266 -66 44 219 -50 hvcurveto
          -83 hlineto
          19 -591 rlineto
          endchar
        </CharString>
        <CharString name="Y">
          1482 198 1167 -67 callsubr
        </CharString>
        <CharString name="Yacute">
          1482 800 119 callsubr
          -492 -364 -67 callsubr
        </CharString>
        <CharString name="Ycircumflex">
          1482 618 -87 callgsubr
          257 -135 108 0 -217 316 -294 0 -217 -316 rlineto
          -313 -363 -67 callsubr
        </CharString>
        <CharString name="Ydieresis">
          1482 664 1537 rmoveto
          -97 callgsubr
          -79 callgsubr
          381 hmoveto
          88 71 63 89 88 -71 63 -88 -89 -71 -63 -88 -89 71 -63 89 hvcurveto
          -847 -370 -67 callsubr
        </CharString>
        <CharString name="Ydotaccent">
          1482 854 1521 rmoveto
          100 80 70 98 97 -80 69 -100 -99 -16 callsubr
          -656 -354 -67 callsubr
        </CharString>
        <CharString name="Ydotbelow">
          1482 198 1167 rmoveto
          303 -562 rlineto
          -363 -90 callgsubr
          779 3 callsubr
          -32 callgsubr
          57 callgsubr
          560 -1281 -85 callsubr
          -76 callsubr
        </CharString>
        <CharString name="Yericyrillic">
          2335 1503 448 rmoveto
          280 -255 159 -389 vhcurveto
          -184 316 -89 callgsubr
          -103 callgsubr
          -84 callsubr
          812 vlineto
          403 236 170 278 hvcurveto
          644 -222 rmoveto
          -23 callsubr
          1 callsubr
          -1154 221 rmoveto
          -201 -81 -133 26 callgsubr
        </CharString>
        <CharString name="Ygrave">
          1482 949 125 callsubr
          -300 -671 -67 callsubr
        </CharString>
        <CharString name="Yhookabove">
          1482 903 1893 rmoveto
          -127 -92 -60 -66 -41 hvcurveto
          -1 callgsubr
          -705 -726 -67 callsubr
        </CharString>
        <CharString name="Yicyrillic">
          862 241 -18 callsubr
          -5 callsubr
          54 -1311 -82 callsubr
        </CharString>
        <CharString name="Ymacron">
          1482 518 -69 callsubr
          -320 -598 -67 callsubr
        </CharString>
        <CharString name="Ytilde">
          1482 992 -54 callsubr
          12 callsubr
          112 callsubr
          -794 -366 -67 callsubr
        </CharString>
        <CharString name="Z">
          1377 1297 hmoveto
          49 callsubr
          endchar
        </CharString>
        <CharString name="Zacute">
          1377 671 -79 callsubr
          735 -1531 rmoveto
          49 callsubr
          endchar
        </CharString>
        <CharString name="Zcaron">
          1377 1002 -42 callsubr
          -257 135 -109 0 74 callsubr
          188 -1861 rmoveto
          49 callsubr
          endchar
        </CharString>
        <CharString name="Zcircumflex">
          1377 490 -47 callsubr
          -57 callsubr
          915 -1530 rmoveto
          49 callsubr
          endchar
        </CharString>
        <CharString name="Zdotaccent">
          1377 726 -73 callsubr
          -74 callsubr
          -16 callsubr
          571 -1521 rmoveto
          49 callsubr
          endchar
        </CharString>
        <CharString name="Zdotbelow">
          1377 1297 hmoveto
          49 callsubr
          635 -115 -85 callsubr
          -30 callgsubr
        </CharString>
        <CharString name="Zecyrillic">
          1351 1287 422 rmoveto
          227 -222 114 -274 15 vhcurveto
          256 28 205 112 199 vvcurveto
          245 -265 109 -418 -181 -177 -40 -52 -94 vhcurveto
          -7 -407 rlineto
          84 hlineto
          217 45 118 165 172 hhcurveto
          142 77 -92 -174 -188 -101 -101 -182 hvcurveto
          -103 -108 103 hlineto
          205 106 -103 -188 -205 -100 -105 -162 -158 -135 152 234 -50 hvcurveto
          -83 hlineto
          7 -409 rlineto
          -54 100 178 -40 181 hhcurveto
          402 331 137 312 hvcurveto
          endchar
        </CharString>
        <CharString name="Zetagreek">
          1377 1297 hmoveto
          49 callsubr
          endchar
        </CharString>
        <CharString name="Zhecyrillic">
          2300 517 hmoveto
          331 672 rlineto
          68 -454 hlineto
          -88 -22 -24 -104 -19 vhcurveto
          -87 701 87 vlineto
          -104 19 -21 24 88 vvcurveto
          454 67 vlineto
          330 -672 rlineto
          544 84 hlineto
          -61 27 -30 37 -118 231 rrcurveto
          -327 650 95 94 169 163 70 43 135 28 rlinecurve
          87 -506 -87 vlineto
          119 -21 16 -34 -106 -126 rrcurveto
          -330 -396 -67 -1 rlineto
          447 vlineto
          88 21 24 104 19 vhcurveto
          87 -701 -87 vlineto
          104 -19 22 -24 -88 vvcurveto
          -447 vlineto
          -69 1 -330 396 -105 126 16 34 118 21 rlinecurve
          87 -505 -87 vlineto
          135 -28 62 -39 167 -165 rrcurveto
          114 -116 -316 -630 -119 -231 -29 -37 -62 -27 rlinecurve
          -84 vlineto
          endchar
        </CharString>
        <CharString name="Zlinebelow">
          1377 1297 hmoveto
          49 callsubr
          287 -380 -95 callgsubr
        </CharString>
        <CharString name="a">
          1311 92 callsubr
          -99 callsubr
        </CharString>
        <CharString name="a.dnum">
          821 232 -13 rmoveto
          108 81 40 66 26 hvcurveto
          -66 15 84 -37 86 hhcurveto
          65 57 16 21 31 hvcurveto
          55 vlineto
          -1 -5 -8 -1 -8 hhcurveto
          -28 -22 19 41 hvcurveto
          217 vlineto
          156 -115 67 -207 -202 -109 -76 -86 -58 48 -40 68 66 51 47 60 29 -13 26 -20 18 vhcurveto
          1 9 9 1 9 hhcurveto
          87 44 -38 -90 hvcurveto
          -40 vlineto
          -115 -22 rlineto
          -204 -38 -67 -67 -82 vvcurveto
          -81 67 -57 112 vhcurveto
          92 180 rmoveto
          51 28 35 71 16 vhcurveto
          16 3 rlineto
          -141 vlineto
          -18 -7 -22 -13 -28 hhcurveto
          -32 -26 22 45 hvcurveto
          endchar
        </CharString>
        <CharString name="a.numr">
          819 232 644 rmoveto
          108 81 40 203 callsubr
          47 60 -7 callgsubr
          -58 112 vhcurveto
          92 180 rmoveto
          51 28 36 71 16 vhcurveto
          16 3 rlineto
          -142 vlineto
          -18 -7 -22 -12 -28 hhcurveto
          -32 -26 21 45 hvcurveto
          endchar
        </CharString>
        <CharString name="a.sups">
          821 232 812 rmoveto
          108 81 39 203 callsubr
          48 59 -7 callgsubr
          -57 112 vhcurveto
          92 179 rmoveto
          51 28 36 71 16 vhcurveto
          16 3 rlineto
          -141 vlineto
          -19 -7 -22 -12 -28 hhcurveto
          -32 -26 21 45 hvcurveto
          endchar
        </CharString>
        <CharString name="aacute">
          1311 530 -92 callsubr
          -87 callsubr
          -58 -1160 -100 callsubr
          -99 callsubr
        </CharString>
        <CharString name="abreve">
          1311 602 123 callsubr
          -240 -1176 -100 callsubr
          -99 callsubr
        </CharString>
        <CharString name="abreveacute">
          1311 955 -44 callsubr
          353 -327 -28 callsubr
          -102 -41 -142 hhcurveto
          -142 -102 42 62 -9 hvcurveto
          -100 hlineto
          -189 -7 140 -112 220 hhcurveto
          -240 -1132 -100 callsubr
          -99 callsubr
        </CharString>
        <CharString name="abrevecyrillic">
          1311 602 74 callgsubr
          -97 -88 -6 callgsubr
          -64 -65 -100 -162 165 -117 223 vhcurveto
          -240 -1170 -100 callsubr
          -99 callsubr
        </CharString>
        <CharString name="abrevedotbelow">
          1311 602 123 callsubr
          -240 -1176 -100 callsubr
          44 callsubr
          172 -753 -81 callsubr
          -53 callsubr
        </CharString>
        <CharString name="abrevegrave">
          1311 249 -27 callsubr
          353 -652 -28 callsubr
          -102 -41 -142 hhcurveto
          -142 -102 42 62 -9 hvcurveto
          -100 hlineto
          -189 -7 140 -112 220 hhcurveto
          -240 -1132 -100 callsubr
          -99 callsubr
        </CharString>
        <CharString name="abrevehookabove">
          1311 590 11 callsubr
          12 -624 -28 callsubr
          -102 -41 -142 hhcurveto
          -142 -102 42 62 -9 hvcurveto
          -100 hlineto
          -189 -7 140 -112 220 hhcurveto
          -240 -1132 -100 callsubr
          -99 callsubr
        </CharString>
        <CharString name="abrevetilde">
          1311 741 65 callsubr
          -1 -26 -24 -53 hhcurveto
          -31 -33 8 13 -40 hvcurveto
          -43 14 rlineto
          36 callsubr
          -31 callsubr
          -139 -356 -28 callsubr
          -102 -41 -142 hhcurveto
          -142 -102 42 62 -9 hvcurveto
          -100 hlineto
          -189 -7 140 -112 220 hhcurveto
          -240 -1132 -100 callsubr
          -99 callsubr
        </CharString>
        <CharString name="acaron">
          1311 875 -54 callgsubr
          -83 callgsubr
          -623 -1586 -100 callsubr
          -99 callsubr
        </CharString>
        <CharString name="acircumflex">
          1311 329 -72 callsubr
          -53 callgsubr
          143 -1160 -100 callsubr
          -99 callsubr
        </CharString>
        <CharString name="acircumflexacute">
          1311 955 -44 callsubr
          -323 vmoveto
          353 76 callsubr
          -324 -218 rlineto
          113 -1221 -100 callsubr
          -99 callsubr
        </CharString>
        <CharString name="acircumflexdotbelow">
          1311 329 -72 callsubr
          -53 callgsubr
          143 -1160 -100 callsubr
          44 callsubr
          172 -753 -81 callsubr
          -53 callsubr
        </CharString>
        <CharString name="acircumflexgrave">
          1311 249 -27 callsubr
          -648 vmoveto
          353 76 callsubr
          -324 -218 rlineto
          113 -1221 -100 callsubr
          -99 callsubr
        </CharString>
        <CharString name="acircumflexhookabove">
          1311 872 11 callsubr
          -623 -620 rmoveto
          353 76 callsubr
          -324 -218 rlineto
          113 -1221 -100 callsubr
          -99 callsubr
        </CharString>
        <CharString name="acircumflextilde">
          1311 741 65 callsubr
          -1 -26 -24 -53 hhcurveto
          -31 -33 8 13 -40 hvcurveto
          -43 14 rlineto
          36 callsubr
          -31 callsubr
          -492 -352 rmoveto
          353 76 callsubr
          -324 -218 rlineto
          113 -1221 -100 callsubr
          -99 callsubr
        </CharString>
        <CharString name="acute">
          1024 440 -92 callsubr
          -87 callsubr
          endchar
        </CharString>
        <CharString name="acutecmb">
          0 -72 -92 callsubr
          -87 callsubr
          endchar
        </CharString>
        <CharString name="acutecmb.short">
          0 -55 1115 rmoveto
          448 308 rlineto
          8 -453 vlineto
          -104 -316 rlineto
          endchar
        </CharString>
        <CharString name="acutedotaccentcmb">
          29 callgsubr
          75 callgsubr
          endchar
        </CharString>
        <CharString name="acutedotaccentcmb.short">
          0 1780 vmoveto
          56 callgsubr
          362 -160 -38 callgsubr
          endchar
        </CharString>
        <CharString name="acyrillic">
          1311 92 callsubr
          -99 callsubr
        </CharString>
        <CharString name="adblgrave">
          1311 405 -88 callgsubr
          394 -44 callgsubr
          -504 -1160 -100 callsubr
          -99 callsubr
        </CharString>
        <CharString name="adieresis">
          1311 342 -63 callsubr
          -80 callsubr
          -30 callsubr
          519 hmoveto
          110 -80 callsubr
          -30 callsubr
          -499 -1182 -100 callsubr
          -99 callsubr
        </CharString>
        <CharString name="adieresismacron">
          1311 248 135 callsubr
          166 -544 -50 callsubr
          77 63 55 77 78 -63 54 -77 hvcurveto
          -17 hlineto
          -77 -64 -54 -78 -77 64 -55 77 hvcurveto
          -428 -1149 -100 callsubr
          -99 callsubr
        </CharString>
        <CharString name="adotaccent">
          1311 602 1148 rmoveto
          35 callgsubr
          94 -82 117 hvcurveto
          -240 -1171 -100 callsubr
          -99 callsubr
        </CharString>
        <CharString name="adotbelow">
          1311 92 callsubr
          44 callsubr
          172 -753 -81 callsubr
          -53 callsubr
        </CharString>
        <CharString name="adotmacron">
          1311 248 152 callsubr
          -240 -1140 -100 callsubr
          -99 callsubr
        </CharString>
        <CharString name="ae">
          1769 372 -23 138 callsubr
        </CharString>
        <CharString name="aeacute">
          1769 858 -92 callsubr
          -87 callsubr
          -376 -1160 138 callsubr
        </CharString>
        <CharString name="aemacron">
          1769 556 0 callsubr
          -184 -1457 138 callsubr
        </CharString>
        <CharString name="agrave">
          1311 676 -60 callsubr
          157 -1557 -100 callsubr
          -99 callsubr
        </CharString>
        <CharString name="ahookabove">
          1311 666 165 callsubr
          -304 -1584 -100 callsubr
          -99 callsubr
        </CharString>
        <CharString name="ainvertedbreve">
          1311 602 64 callsubr
          148 callsubr
          -240 -1570 -100 callsubr
          -99 callsubr
        </CharString>
        <CharString name="alphagreek">
          1440 482 -22 177 callsubr
        </CharString>
        <CharString name="alphatonosgreek">
          1440 718 1138 -48 callgsubr
          -113 -1160 177 callsubr
        </CharString>
        <CharString name="amacron">
          1311 228 0 callsubr
          134 -1457 -100 callsubr
          -99 callsubr
        </CharString>
        <CharString name="ampersand">
          1766 537 -25 rmoveto
          185 131 68 128 138 hvcurveto
          156 -171 rlineto
          598 84 hlineto
          -67 21 -62 43 -180 190 rrcurveto
          -148 160 123 143 143 163 51 36 102 17 rlinecurve
          87 vlineto
          -439 -3 rlineto
          -87 vlineto
          103 -16 26 -36 -87 -127 rrcurveto
          -79 -115 -289 313 -3 4 rlineto
          211 51 138 104 143 vvcurveto
          170 -161 126 -293 -330 -196 -166 -212 -106 44 -93 93 -118 vhcurveto
          -246 -57 -138 -149 -1 -197 rrcurveto
          -231 -2 194 -167 285 hhcurveto
          182 1252 rmoveto
          85 50 42 65 78 47 -80 -112 -3 vhcurveto
          -2 -83 -26 -76 -57 -52 rrcurveto
          -114 129 -38 69 78 vvcurveto
          -262 -670 rmoveto
          58 15 49 35 37 vhcurveto
          35 -39 39 -43 44 -47 299 -327 rcurveline
          -17 -42 -42 -7 -44 hhcurveto
          -190 -148 145 191 -1 hvcurveto
          endchar
        </CharString>
        <CharString name="anoteleiagreek">
          604 302 602 rmoveto
          125 99 102 122 124 -99 101 -125 -125 -100 -101 -124 -122 100 -102 125 hvcurveto
          endchar
        </CharString>
        <CharString name="aogonek">
          1310 92 callsubr
          -113 27 140 -63 139 11 11 1 10 hhcurveto
          -210 -97 -72 -95 -100 vvcurveto
          -112 100 -70 135 115 111 57 89 47 vhcurveto
          84 vlineto
          -13 -15 -27 -9 -29 hhcurveto
          -48 -39 28 60 82 60 78 93 74 hvcurveto
          83 vlineto
          -2 -9 -13 -2 -15 hhcurveto
          -48 -39 34 78 hvcurveto
          427 vlineto
          268 -194 119 -341 -335 -185 -131 -153 -100 80 -70 109 109 82 78 102 59 -30 52 -45 31 vhcurveto
          5 23 25 2 26 hhcurveto
          152 78 -69 -170 hvcurveto
          -86 vlineto
          -197 -39 rlineto
          -342 -67 -117 -116 -153 vvcurveto
          -147 116 -102 189 vhcurveto
          135 318 rmoveto
          102 51 68 129 32 vhcurveto
          36 8 rlineto
          -280 vlineto
          -41 -15 -40 -26 -54 hhcurveto
          -60 -47 46 91 hvcurveto
          endchar
        </CharString>
        <CharString name="approxequal">
          1329 931 836 rmoveto
          159 callsubr
          16 callgsubr
          -171 -59 -75 -93 vhcurveto
          -537 vmoveto
          159 callsubr
          73 92 vhcurveto
          156 179 -248 203 hhcurveto
          192 118 142 294 hvcurveto
          -165 hlineto
          -171 -59 -75 -93 vhcurveto
          endchar
        </CharString>
        <CharString name="aring">
          1311 255 71 callsubr
          75 callsubr
          133 callsubr
          35 56 52 51 36 -55 -80 -81 -36 -54 -51 -52 -35 54 81 vhcurveto
          -153 -1372 -100 callsubr
          -99 callsubr
        </CharString>
        <CharString name="aringacute">
          1311 955 1547 37 callsubr
          197 callsubr
          -252 -1215 -100 callsubr
          -99 callsubr
        </CharString>
        <CharString name="aringbelow">
          1311 92 callsubr
          44 callsubr
          -175 -576 rmoveto
          -121 140 -78 207 206 140 77 122 119 -140 80 -206 -207 -140 -81 -118 vhcurveto
          259 hmoveto
          69 36 50 52 51 36 -49 -70 -72 -36 -47 -51 -52 -36 48 71 vhcurveto
          endchar
        </CharString>
        <CharString name="asciicircum">
          1329 613 1444 rmoveto
          -480 -605 126 -118 402 506 405 -507 131 118 -480 606 rlineto
          endchar
        </CharString>
        <CharString name="asciitilde">
          1329 931 547 rmoveto
          159 callsubr
          16 callgsubr
          -170 -59 -76 -93 vhcurveto
          endchar
        </CharString>
        <CharString name="asterisk">
          892 431 1084 rmoveto
          30 hlineto
          76 183 rlineto
          125 54 -76 79 -69 hhcurveto
          -72 -74 -77 -127 55 hvcurveto
          112 -186 rmoveto
          16 -28 197 27 rlineto
          136 17 30 103 -35 61 -36 63 -104 26 -82 -112 rrcurveto
          -180 -185 rmoveto
          16 27 -122 158 rlineto
          -82 111 -105 -28 -34 -60 -37 -64 30 -100 138 -17 rrcurveto
          212 -61 rmoveto
          -15 28 -197 -27 rlineto
          -136 -17 -30 -103 35 -61 37 -63 102 -26 83 112 rrcurveto
          180 185 rmoveto
          -16 -27 121 -158 rlineto
          81 -111 106 28 35 60 36 64 -30 100 -137 17 rrcurveto
          -218 -5 rmoveto
          -31 hlineto
          -75 -182 rlineto
          -125 -55 76 -79 69 hhcurveto
          73 73 77 127 -55 hvcurveto
          endchar
        </CharString>
        <CharString name="at">
          2135 545 401 rmoveto
          -227 97 -118 154 138 117 87 164 64 vhcurveto
          -1 -11 -2 -18 -10 vvcurveto
          -140 7 81 -111 223 hhcurveto
          437 210 343 339 461 -388 323 -555 -596 -468 -444 -599 -546 410 -326 477 176 186 44 84 106 hvcurveto
          -3 88 rlineto
          -83 -135 -151 -19 -159 hhcurveto
          -430 -1 -347 285 475 vvcurveto
          544 425 385 509 502 311 -289 -402 -303 -178 -201 -182 -95 -22 53 103 22 vhcurveto
          143 667 -231 0 -157 -121 rlineto
          87 -34 -80 56 -118 hhcurveto
          -279 -184 -296 -323 hvcurveto
          392 7 rmoveto
          168 81 312 124 45 30 -37 -79 -13 vhcurveto
          -74 -344 rlineto
          -100 -21 -48 -60 -56 hhcurveto
          -47 -21 47 93 hvcurveto
          endchar
        </CharString>
        <CharString name="atilde">
          1311 750 18 callsubr
          54 callsubr
          53 35 94 callgsubr
          -388 -1187 -100 callsubr
          -99 callsubr
        </CharString>
        <CharString name="austral">
          1537 197 315 rmoveto
          -62 -175 -30 -33 -106 -20 rrcurveto
          -87 442 87 vlineto
          -135 23 -26 37 55 167 rrcurveto
          24 73 476 0 26 -75 55 -165 -27 -38 -136 -22 rlinecurve
          -87 787 87 vlineto
          -107 20 -31 36 -60 166 -28 78 rcurveline
          226 68 -250 hlineto
          -73 205 rlineto
          323 68 -347 hlineto
          -256 717 -338 0 -255 -717 rlineto
          -345 -68 321 hlineto
          -73 -205 rlineto
          -248 -68 224 hlineto
          248 341 rmoveto
          124 377 127 -377 rlineto
          -341 -273 rmoveto
          68 205 295 0 69 -205 rlineto
          endchar
        </CharString>
        <CharString name="austral.tnum">
          1344 2 449 rmoveto
          -67 176 vlineto
          -20 -68 -52 -175 -23 -36 -80 -16 rlinecurve
          -87 368 87 vlineto
          -108 17 -18 37 45 169 rrcurveto
          19 72 370 0 19 -72 45 -171 -19 -33 -113 -19 rlinecurve
          -87 729 87 vlineto
          -84 16 -21 40 -50 168 -21 71 rcurveline
          178 67 -198 hlineto
          -61 205 rlineto
          259 68 -279 hlineto
          -213 722 -357 0 -214 -722 rlineto
          -277 -68 257 hlineto
          -61 -205 rlineto
          203 273 rmoveto
          94 345 92 -345 rlineto
          -259 -273 rmoveto
          55 205 222 0 55 -205 rlineto
          endchar
        </CharString>
        <CharString name="b">
          -58 callgsubr
          endchar
        </CharString>
        <CharString name="backslash">
          827 556 -280 rmoveto
          213 hlineto
          -498 1860 rlineto
          -213 hlineto
          endchar
        </CharString>
        <CharString name="baht">
          1564 44 30 rmoveto
          726 -220 68 220 hlineto
          354 6 310 137 267 vvcurveto
          218 -188 125 -285 10 vhcurveto
          222 10 204 93 200 vvcurveto
          208 -227 106 -390 4 vhcurveto
          217 -68 -217 -726 -87 vlineto
          54 callgsubr
          592 1197 rmoveto
          77 -2 rlineto
          20 19 -2 -3 18 hvcurveto
          -499 vlineto
          -1 -7 -7 0 -8 hhcurveto
          -112 -1 rlineto
          354 254 rmoveto
          -137 -54 -76 -98 -28 vhcurveto
          471 vlineto
          100 -37 52 -82 -111 vvcurveto
          -354 -354 rmoveto
          112 -1 rlineto
          8 7 0 -1 7 hvcurveto
          -568 vlineto
          -2 -18 -19 -2 -20 hhcurveto
          -77 -2 rlineto
          388 299 rmoveto
          -139 -64 -98 -122 -40 vhcurveto
          541 vlineto
          122 -35 64 -102 -127 vvcurveto
          endchar
        </CharString>
        <CharString name="baht.tnum">
          1344 17 41 rmoveto
          649 -230 68 231 hlineto
          318 9 267 133 253 36 callgsubr
          200 -198 103 -344 7 vhcurveto
          229 -68 -229 -649 -87 vlineto
          55 callgsubr
          546 1175 rmoveto
          52 -1 18 -1 17 -1 16 -3 rlinecurve
          -489 vlineto
          -1 -7 -7 0 -7 hhcurveto
          -82 -1 rlineto
          291 254 rmoveto
          -129 -43 -76 -77 -31 vhcurveto
          451 vlineto
          78 -38 42 -76 -101 vvcurveto
          -291 -353 rmoveto
          82 -2 rlineto
          7 7 0 -1 7 hvcurveto
          -557 vlineto
          -16 -3 -17 -1 -18 -1 -52 -1 rcurveline
          322 287 rmoveto
          -129 -52 -91 -99 -42 vhcurveto
          523 vlineto
          99 -37 52 -97 -127 vvcurveto
          endchar
        </CharString>
        <CharString name="bar">
          827 307 -280 rmoveto
          213 1860 -213 hlineto
          endchar
        </CharString>
        <CharString name="bdotaccent">
          1378 360 1563 rmoveto
          116 94 82 115 115 -94 81 -116 -116 -95 -81 -115 -115 94 -82 117 hvcurveto
          958 -1036 185 callsubr
          endchar
        </CharString>
        <CharString name="bdotbelow">
          -58 callgsubr
          -176 -950 -2 callsubr
          -28 callgsubr
        </CharString>
        <CharString name="becyrillic">
          1378 1318 506 rmoveto
          295 -218 198 -372 -248 -191 -116 -182 -82 vhcurveto
          -6 33 -4 37 40 vvcurveto
          169 73 130 406 24 vhcurveto
          118 9 354 24 97 114 15 273 rlinecurve
          -88 hlineto
          -20 -48 -68 -11 -242 -24 -256 -25 -158 -63 -123 -103 rrcurveto
          -152 -130 -87 -212 -318 vvcurveto
          -388 204 -255 416 345 287 202 327 vhcurveto
          -472 -16 rmoveto
          -304 -65 -96 -88 -105 -50 150 255 266 57 130 105 96 50 -133 -268 vhcurveto
          endchar
        </CharString>
        <CharString name="betagreek">
          1364 109 -460 rmoveto
          465 hlineto
          -6 218 -5 188 -4 163 rrcurveto
          -74 50 102 -57 131 hhcurveto
          243 209 158 286 280 -165 185 -247 29 hvcurveto
          184 16 152 98 172 vvcurveto
          193 -172 138 -349 -358 -225 -178 -428 -1 vhcurveto
          430 191 rmoveto
          193 33 103 110 92 44 -87 -151 -148 -59 -84 -118 -9 vhcurveto
          1 -303 rlineto
          146 -10 91 -93 -170 vvcurveto
          -158 -86 -65 -92 -62 -60 27 46 -26 vhcurveto
          -11 488 -3 248 173 vvcurveto
          endchar
        </CharString>
        <CharString name="bitcoin">
          1545 44 30 rmoveto
          567 -218 68 218 119 hlineto
          31 30 1 2 29 hvcurveto
          -222 69 228 vlineto
          293 35 234 134 232 vvcurveto
          218 -189 125 -285 10 vhcurveto
          223 10 203 93 200 vvcurveto
          182 -174 104 -305 26 vhcurveto
          223 -69 -219 vlineto
          1 -29 -30 1 -31 hhcurveto
          -119 217 -68 -217 -567 -87 hlineto
          54 callgsubr
          928 943 rmoveto
          -174 -88 -76 -153 -3 vhcurveto
          -95 -1 0 508 59 -2 rlineto
          182 -5 95 -97 -150 vvcurveto
          34 -631 rmoveto
          -180 -108 -111 -203 -6 vhcurveto
          -59 -2 0 576 95 -1 rlineto
          179 -3 96 -117 -156 vvcurveto
          endchar
        </CharString>
        <CharString name="bitcoin.tnum">
          1344 17 41 rmoveto
          498 -230 68 230 116 hlineto
          28 28 1 2 28 hvcurveto
          -233 68 240 vlineto
          264 35 204 130 221 36 callgsubr
          176 -154 101 -271 26 vhcurveto
          235 -68 -230 vlineto
          1 -27 -28 1 -29 hhcurveto
          -116 228 -68 -228 -498 -87 hlineto
          55 callgsubr
          832 932 rmoveto
          -173 -77 -77 -132 -3 vhcurveto
          -72 -1 0 497 41 -1 rlineto
          154 -6 86 -92 -144 vvcurveto
          30 -636 rmoveto
          -169 -95 -106 -175 -7 vhcurveto
          -41 -1 0 566 72 -2 rlineto
          156 -4 83 -119 -158 vvcurveto
          endchar
        </CharString>
        <CharString name="blinebelow">
          -58 callgsubr
          -523 -871 -75 callsubr
        </CharString>
        <CharString name="braceleft">
          827 619 1053 rmoveto
          175 vlineto
          144 4 120 167 vhcurveto
          88 -42 vlineto
          -373 -162 -131 -264 hvcurveto
          -296 vlineto
          -155 -59 -42 -126 vhcurveto
          -86 vlineto
          126 59 -43 -157 hvcurveto
          -291 vlineto
          -264 162 -131 373 vhcurveto
          42 88 hlineto
          -167 -4 120 144 hvcurveto
          173 vlineto
          252 -147 118 -282 34 vhcurveto
          283 34 146 119 251 vvcurveto
          endchar
        </CharString>
        <CharString name="braceright">
          827 207 1053 rmoveto
          -251 147 -119 283 -34 vhcurveto
          -282 -34 -148 -118 -252 vvcurveto
          -173 vlineto
          -144 -3 -120 -166 vhcurveto
          -88 41 vlineto
          373 162 131 264 hvcurveto
          291 vlineto
          157 59 43 125 vhcurveto
          86 vlineto
          -125 -59 42 155 hvcurveto
          296 vlineto
          264 -162 131 -373 vhcurveto
          -41 -88 hlineto
          166 3 -120 -144 hvcurveto
          endchar
        </CharString>
        <CharString name="bracketleft">
          827 174 -285 rmoveto
          617 5 0 88 -226 10 0 1664 226 10 0 88 -617 5 rlineto
          endchar
        </CharString>
        <CharString name="bracketright">
          827 652 1585 rmoveto
          -616 -5 0 -88 226 -10 0 -1664 -226 -10 0 -88 616 -5 rlineto
          endchar
        </CharString>
        <CharString name="breve">
          1024 512 123 callsubr
          endchar
        </CharString>
        <CharString name="breveacutecmb">
          -80 callgsubr
          353 -327 -28 callsubr
          110 callsubr
        </CharString>
        <CharString name="breveacutecmb.short">
          -81 callgsubr
          362 -268 130 callsubr
        </CharString>
        <CharString name="brevebelowcmb">
          0 -467 vmoveto
          236 114 150 157 24 -2 23 -4 17 hvcurveto
          -93 -1 hlineto
          -90 -107 -60 -144 -142 -109 61 89 vhcurveto
          1 -93 vlineto
          -4 -18 -2 -22 -24 vvcurveto
          -157 114 -150 236 vhcurveto
          endchar
        </CharString>
        <CharString name="brevecmb">
          0 1153 vmoveto
          254 122 166 175 27 -2 24 -4 20 hvcurveto
          -101 -1 hlineto
          -101 -115 108 callsubr
          endchar
        </CharString>
        <CharString name="brevecmb.short">
          0 1136 vmoveto
          232 114 144 151 22 -2 22 -3 17 hvcurveto
          -99 -1 hlineto
          -89 -105 -57 -137 -136 -106 59 87 vhcurveto
          1 -99 vlineto
          -3 -18 -2 -21 -22 vvcurveto
          -151 114 -144 232 vhcurveto
          endchar
        </CharString>
        <CharString name="brevecyrilliccmb">
          0 1147 vmoveto
          223 165 118 161 100 -64 65 -96 -89 -6 callgsubr
          -63 -65 -100 -162 164 -117 223 vhcurveto
          endchar
        </CharString>
        <CharString name="brevecyrilliccmb.short">
          0 1543 vmoveto
          21 callgsubr
          -54 -13 -58 hhcurveto
          -59 -53 158 callsubr
          endchar
        </CharString>
        <CharString name="brevegravecmb">
          0 -353 -27 callsubr
          353 -652 -28 callsubr
          110 callsubr
        </CharString>
        <CharString name="brevegravecmb.short">
          0 -362 5 callsubr
          362 -545 130 callsubr
        </CharString>
        <CharString name="brevehookabovecmb">
          0 -12 11 callsubr
          12 -624 -28 callsubr
          110 callsubr
        </CharString>
        <CharString name="brevehookabovecmb.short">
          0 -12 2059 rmoveto
          -99 -86 -36 -53 -50 70 callgsubr
          -93 -14 hvcurveto
          77 -42 rlineto
          176 23 88 50 86 vvcurveto
          84 -96 56 -138 vhcurveto
          12 -528 130 callsubr
        </CharString>
        <CharString name="brevetildecmb">
          0 139 65 callsubr
          30 callsubr
          36 callsubr
          -31 callsubr
          -139 -356 -28 callsubr
          110 callsubr
        </CharString>
        <CharString name="brevetildecmb.short">
          0 143 1834 115 callsubr
          7 11 -40 hvcurveto
          -45 12 rlineto
          15 172 callsubr
          21 55 hhcurveto
          32 34 -7 -11 40 hvcurveto
          45 -12 rlineto
          -14 55 55 -13 58 hhcurveto
          -143 -303 130 callsubr
        </CharString>
        <CharString name="brokenbar">
          827 307 789 rmoveto
          213 791 -213 hlineto
          -1860 vmoveto
          213 791 -213 hlineto
          endchar
        </CharString>
        <CharString name="bullet">
          821 411 -21 callgsubr
        </CharString>
        <CharString name="c">
          1157 650 -23 15 callsubr
        </CharString>
        <CharString name="cacute">
          1157 588 -92 callsubr
          -87 callsubr
          172 -1160 15 callsubr
        </CharString>
        <CharString name="caret">
          604 259 hmoveto
          -311 -375 102 -99 249 301 252 -302 105 99 -310 376 rlineto
          endchar
        </CharString>
        <CharString name="caron">
          1024 785 -24 callsubr
          -69 callgsubr
          endchar
        </CharString>
        <CharString name="caroncmb">
          0 273 -24 callsubr
          -69 callgsubr
          endchar
        </CharString>
        <CharString name="caroncmb.short">
          0 276 1445 rmoveto
          -256 -134 -257 134 -108 0 217 -316 294 0 217 316 rlineto
          endchar
        </CharString>
        <CharString name="carondotaccentcmb">
          29 callgsubr
          352 9 37 callgsubr
          endchar
        </CharString>
        <CharString name="carondotaccentcmb.short">
          0 1803 vmoveto
          80 63 51 72 73 -63 50 -80 -79 -64 101 callgsubr
          -370 80 0 -72 340 -185 62 0 339 185 rlineto
          endchar
        </CharString>
        <CharString name="caronslovak">
          1024 428 1126 rmoveto
          261 426 -306 0 -46 -426 rlineto
          endchar
        </CharString>
        <CharString name="caronslovakcmb">
          0 106 1126 -47 callgsubr
          endchar
        </CharString>
        <CharString name="ccaron">
          1157 933 -24 callsubr
          -111 -105 callgsubr
          -393 -1586 15 callsubr
        </CharString>
        <CharString name="ccedilla">
          1157 611 -474 -46 callgsubr
          -7 -8 0 -8 hhcurveto
          60 59 183 7 157 67 83 107 rlinecurve
          146 callsubr
          -13 callgsubr
        </CharString>
        <CharString name="ccedillaacute">
          1157 588 -92 callsubr
          -87 callsubr
          133 -1611 -46 callgsubr
          -7 -8 0 -8 hhcurveto
          60 59 183 7 157 67 83 107 rlinecurve
          146 callsubr
          -13 callgsubr
        </CharString>
        <CharString name="ccircumflex">
          1157 387 -72 callsubr
          28 callsubr
          374 -1160 15 callsubr
        </CharString>
        <CharString name="cdotaccent">
          1157 660 24 callsubr
          -116 -95 -104 callgsubr
          -10 -1171 15 callsubr
        </CharString>
        <CharString name="cedi">
          1368 840 -188 rmoveto
          68 201 hlineto
          155 7 154 34 79 51 10 376 rcurveline
          -83 hlineto
          -55 -239 -111 -107 -149 -5 rrcurveto
          1185 vlineto
          156 -6 108 -122 49 -222 rrcurveto
          83 hlineto
          -10 376 -85 49 -132 35 -169 6 rlinecurve
          200 -68 -199 vlineto
          -453 -6 -306 -284 -425 vvcurveto
          -419 305 -280 454 -6 vhcurveto
          -286 728 rmoveto
          324 107 211 179 35 vhcurveto
          -1175 vlineto
          -187 40 -99 242 323 vvcurveto
          endchar
        </CharString>
        <CharString name="cedi.tnum">
          1344 818 -188 rmoveto
          68 201 hlineto
          146 6 146 34 77 49 9 382 rcurveline
          -83 hlineto
          -52 -237 -104 -111 -139 -7 rrcurveto
          1186 vlineto
          143 -8 102 -126 47 -219 rrcurveto
          83 hlineto
          -8 381 -83 47 -126 35 -158 6 rlinecurve
          200 -68 -199 vlineto
          -440 -5 -296 -286 -424 vvcurveto
          -423 295 -277 441 -5 vhcurveto
          -266 728 rmoveto
          322 99 211 167 36 vhcurveto
          -1174 vlineto
          -174 40 -92 238 327 vvcurveto
          endchar
        </CharString>
        <CharString name="cedilla">
          1024 483 3 callgsubr
          47 -66 vlineto
          -177 -201 86 callsubr
          56 35 -23 -40 -41 -39 -22 -58 -49 100 callgsubr
        </CharString>
        <CharString name="cedillacmb">
          0 -29 -474 rmoveto
          -100 callgsubr
          -102 callgsubr
          -7 hhcurveto
          75 75 rlineto
          47 -66 vlineto
          -177 -195 85 callsubr
          35 -23 -40 -41 -39 -22 -58 -49 100 callgsubr
        </CharString>
        <CharString name="cent">
          1191 708 -1 rmoveto
          188 vlineto
          186 13 159 65 82 106 rrcurveto
          87 vlineto
          -46 -56 -107 -24 -94 hhcurveto
          -61 -58 13 26 -51 11 callgsubr
          104 101 92 callgsubr
          -68 -186 vlineto
          -331 -12 -249 -208 -323 vvcurveto
          -336 263 89 callgsubr
          137 49 102 80 54 vhcurveto
          -617 vlineto
          -78 69 -51 108 147 vvcurveto
          endchar
        </CharString>
        <CharString name="cent.1">
          1148 695 -1 rmoveto
          188 vlineto
          173 12 147 66 79 101 rrcurveto
          87 vlineto
          -40 -47 -89 -25 -80 71 callgsubr
          13 12 0 -2 11 hvcurveto
          -54 -31 -36 -59 -69 vvcurveto
          -102 82 -79 106 102 15 callgsubr
          -207 -324 vvcurveto
          -330 256 -194 312 -5 vhcurveto
          -187 vlineto
          endchar
        </CharString>
        <CharString name="cent.1.tnum">
          1344 786 -1 rmoveto
          188 vlineto
          174 12 147 66 79 101 -1 87 rcurveline
          -40 -47 -89 -25 -79 71 callgsubr
          12 12 0 -2 12 hvcurveto
          -55 -31 -36 -59 -69 vvcurveto
          -102 82 -79 107 101 15 callgsubr
          -208 -323 vvcurveto
          -330 257 -194 311 -5 vhcurveto
          -187 vlineto
          endchar
        </CharString>
        <CharString name="cent.tnum">
          1344 778 -1 rmoveto
          188 vlineto
          186 13 159 65 83 106 -1 87 rcurveline
          -46 -56 -106 -24 -94 hhcurveto
          -61 -58 13 26 -52 11 callgsubr
          105 100 92 callgsubr
          -67 -185 vlineto
          -331 -12 -250 -208 -324 vvcurveto
          -336 264 89 callgsubr
          138 49 101 80 54 vhcurveto
          -617 vlineto
          -79 68 -50 109 147 vvcurveto
          endchar
        </CharString>
        <CharString name="checyrillic">
          1491 159 693 rmoveto
          -226 161 -100 211 132 126 38 44 61 vhcurveto
          -249 vlineto
          -73 -23 -22 -120 -18 vhcurveto
          -87 724 87 vlineto
          -104 17 -22 22 74 vvcurveto
          627 vlineto
          75 22 22 104 17 vhcurveto
          88 -659 -88 vlineto
          66 -12 12 -20 -67 vvcurveto
          -300 vlineto
          -13 -23 -39 -8 -46 hhcurveto
          -86 -47 43 99 hvcurveto
          179 vlineto
          67 13 21 66 11 vhcurveto
          88 -652 -88 vlineto
          101 -17 22 -22 -75 vvcurveto
          endchar
        </CharString>
        <CharString name="chigreek">
          1273 397 -459 rmoveto
          63 617 91 -207 rlineto
          -332 139 99 -99 196 hhcurveto
          116 112 51 72 58 hvcurveto
          83 vlineto
          -7 -12 -22 -7 -22 hhcurveto
          -67 -50 38 275 -117 hvcurveto
          -125 285 114 233 158 271 154 215 rlinecurve
          -407 hlineto
          -70 -602 -85 192 rlineto
          329 -137 -100 99 -194 hhcurveto
          -117 -112 -51 -73 -58 hvcurveto
          -83 vlineto
          8 12 23 6 22 hhcurveto
          66 51 -38 -274 116 hvcurveto
          117 -268 -122 -259 -154 -271 -143 -203 rlinecurve
          endchar
        </CharString>
        <CharString name="circumflex">
          1024 239 -72 callsubr
          73 callsubr
          endchar
        </CharString>
        <CharString name="circumflexacutecmb">
          -80 callgsubr
          1 -323 -25 callsubr
          endchar
        </CharString>
        <CharString name="circumflexacutecmb.short">
          0 362 1872 81 callsubr
          1 -283 -61 callsubr
          endchar
        </CharString>
        <CharString name="circumflexbelowcmb">
          0 -254 -464 rmoveto
          254 162 254 -162 103 0 -222 366 -270 0 -222 -366 rlineto
          endchar
        </CharString>
        <CharString name="circumflexcmb">
          0 -273 -72 callsubr
          73 callsubr
          endchar
        </CharString>
        <CharString name="circumflexcmb.short">
          0 -236 1115 rmoveto
          256 134 256 -134 109 0 -217 316 -57 callsubr
          endchar
        </CharString>
        <CharString name="circumflexgravecmb">
          0 -353 -27 callsubr
          1 -648 -25 callsubr
          endchar
        </CharString>
        <CharString name="circumflexgravecmb.short">
          0 -362 1872 80 callsubr
          1 -560 -61 callsubr
          endchar
        </CharString>
        <CharString name="circumflexhookabovecmb">
          0 270 11 callsubr
          -622 -620 -25 callsubr
          endchar
        </CharString>
        <CharString name="circumflexhookabovecmb.short">
          0 307 46 callgsubr
          81 38 17 callgsubr
          -668 -504 -61 callsubr
          endchar
        </CharString>
        <CharString name="circumflextildecmb">
          0 139 65 callsubr
          30 callsubr
          36 callsubr
          -31 callsubr
          -491 -352 -25 callsubr
          endchar
        </CharString>
        <CharString name="circumflextildecmb.short">
          0 143 -76 callgsubr
          -27 -22 -54 173 callsubr
          58 callgsubr
          55 -12 58 hhcurveto
          -504 -318 -61 callsubr
          endchar
        </CharString>
        <CharString name="colon">
          604 302 556 rmoveto
          125 99 101 124 122 -99 102 -125 -125 -100 -102 -122 -124 100 -101 125 hvcurveto
          -582 vmoveto
          10 callgsubr
          endchar
        </CharString>
        <CharString name="colon.uc">
          604 302 788 rmoveto
          -99 callgsubr
          -74 callgsubr
          -582 vmoveto
          -99 callgsubr
          -74 callgsubr
          endchar
        </CharString>
        <CharString name="coloncurrency">
          1367 478 -189 rmoveto
          69 hlineto
          51 233 64 -17 68 -10 73 -4 rlinecurve
          -45 -202 68 0 45 201 rlineto
          167 2 172 37 86 54 10 376 rcurveline
          -83 hlineto
          -56 -244 -115 -107 -155 -1 rrcurveto
          234 1058 39 -56 30 -75 21 -91 rlinecurve
          83 hlineto
          -10 376 -32 19 -40 16 -47 14 rlinecurve
          54 242 -69 0 -49 -225 -61 13 -68 9 -77 2 rlinecurve
          45 201 -68 0 -45 -200 rlineto
          -451 -7 -305 -283 -425 vvcurveto
          -316 173 -237 280 -100 vhcurveto
          361 1252 rmoveto
          70 60 -23 -44 51 hvcurveto
          -246 -1112 rlineto
          -74 19 -60 51 -45 77 229 1031 rcurveline
          5 5 1 5 hhcurveto
          -341 -576 rmoveto
          305 94 204 160 53 vhcurveto
          -203 -917 rlineto
          -34 98 -17 122 135 vvcurveto
          endchar
        </CharString>
        <CharString name="coloncurrency.tnum">
          1344 473 -189 rmoveto
          68 hlineto
          49 230 61 -16 66 -10 69 -3 rlinecurve
          -43 -201 68 0 43 201 rlineto
          156 3 161 34 83 53 9 382 rcurveline
          -83 hlineto
          -53 -241 -106 -111 -142 -3 rrcurveto
          222 1040 33 -55 26 -69 18 -83 rlinecurve
          83 hlineto
          -9 381 -29 17 -35 15 -40 13 rlinecurve
          52 244 -68 0 -48 -226 -58 13 -65 9 -72 3 rlinecurve
          43 201 -69 0 -42 -200 rlineto
          -442 -4 -298 -285 -426 vvcurveto
          -321 170 -237 275 -98 vhcurveto
          345 1254 rmoveto
          69 59 -26 -50 49 hvcurveto
          -236 -1103 rlineto
          -71 18 -56 51 -43 77 222 1033 rcurveline
          2 3 0 2 hhcurveto
          -320 -575 rmoveto
          306 90 206 152 51 vhcurveto
          -196 -913 rlineto
          -30 96 -16 120 134 vvcurveto
          endchar
        </CharString>
        <CharString name="combiningcircle">
          99 callsubr
          endchar
        </CharString>
        <CharString name="comma">
          604 113 -266 -29 callsubr
          162 callsubr
          endchar
        </CharString>
        <CharString name="commaaccentcmb">
          0 -23 -474 -8 callsubr
          80 callgsubr
        </CharString>
        <CharString name="copyright">
          99 callsubr
          -379 679 rmoveto
          -239 189 -145 258 98 93 18 32 48 vhcurveto
          3 239 rlineto
          -48 hlineto
          -130 -28 -63 -90 -83 hhcurveto
          -110 -59 149 169 191 63 127 106 86 62 -92 -121 25 hvcurveto
          49 hlineto
          -4 238 rlineto
          30 -48 -90 14 -100 hhcurveto
          -257 -190 -144 -246 hvcurveto
          endchar
        </CharString>
        <CharString name="cruzeiro">
          1381 782 790 rmoveto
          -673 vlineto
          -150 79 -79 238 306 vvcurveto
          381 129 234 214 162 114 -123 -227 50 vhcurveto
          83 hlineto
          -10 376 rlineto
          53 -97 -148 37 -194 hhcurveto
          -462 -313 -302 -452 -447 313 -297 462 172 180 37 55 89 hvcurveto
          10 376 rlineto
          -84 hlineto
          -46 -203 -88 -109 -118 -30 rrcurveto
          482 vlineto
          54 62 71 21 91 hhcurveto
          38 38 -4 -6 21 hvcurveto
          8 14 8 29 27 vvcurveto
          57 -29 46 -70 -78 -75 -64 -143 -87 vhcurveto
          204 vlineto
          endchar
        </CharString>
        <CharString name="cruzeiro.tnum">
          1344 837 -27 rmoveto
          163 162 33 55 86 hvcurveto
          9 382 rlineto
          -83 hlineto
          -44 -200 -74 -111 -106 -32 rrcurveto
          481 vlineto
          53 59 65 22 82 hhcurveto
          34 34 -5 -6 19 hvcurveto
          8 14 8 30 27 vvcurveto
          59 -27 46 -63 -74 -68 -64 -144 -79 vhcurveto
          205 vlineto
          -183 -26 rlineto
          -673 vlineto
          -136 81 -72 232 308 vvcurveto
          381 121 234 200 151 96 -127 -226 47 vhcurveto
          84 hlineto
          -9 382 rlineto
          52 -95 -130 35 -184 hhcurveto
          -449 -303 -303 -451 -449 302 -295 449 hvcurveto
          endchar
        </CharString>
</ttFont>
